<?xml version="1.0" encoding="UTF-8"?>
<svg version="1.1" xmlns="http://www.w3.org/2000/svg" width="542" height="541">
<path d="M0 0 C20.88802741 -0.38707264 41.25383061 0.18558634 62 3 C63.21800293 3.16097168 64.43600586 3.32194336 65.69091797 3.48779297 C104.68508855 8.78367445 163.88687811 17.44517955 192 47 C193.10801092 48.05971989 194.23425207 49.1006033 195.375 50.125 C195.89835938 50.60195313 196.42171875 51.07890625 196.9609375 51.5703125 C205.84647146 57.80039953 216.60711616 57.12072973 226.9375 55.5546875 C231.81111304 54.03168343 234.50756345 51.54708957 237.83544922 47.72875977 C270.4294255 10.95952206 352.00837233 3.36959845 396.96923828 0.21386719 C407.96317828 -0.4286685 418.99649506 -0.22237622 430 0 C430 5.28 430 10.56 430 16 C428.73446289 16.09498779 427.46892578 16.18997559 426.16503906 16.2878418 C372.4111685 20.36347804 321.42155749 27.6613797 270.10180664 44.79980469 C269.13759293 45.11840202 269.13759293 45.11840202 268.15390015 45.44343567 C266.40223547 46.02247404 264.65258445 46.60759381 262.90307617 47.19311523 C260 48 260 48 256 48 C255.979375 48.969375 255.95875 49.93875 255.9375 50.9375 C254.97913994 57.34815178 250.39658893 61.95480549 245.62890625 66.0234375 C234.50777103 74.24717868 222.14951789 76.36095808 208.5625 74.5390625 C197.64087888 72.503234 186.68375912 68.38182077 180 59 C179.67253252 57.40744016 179.35828871 55.81212522 179.0546875 54.21484375 C177.53030909 50.29398901 175.8542495 48.67644092 172.11791992 46.98974609 C166.86244494 44.95725702 161.46929506 43.38562426 156.0625 41.8125 C154.08835306 41.20989533 152.11488544 40.60506091 150.14208984 39.99804688 C144.44670448 38.26466108 138.72961944 36.61617834 133 35 C132.26179016 34.79034607 131.52358032 34.58069214 130.76300049 34.36468506 C92.61742785 23.5865815 52.65006045 19.38701872 13.17407227 17.64550781 C12.37265808 17.60888031 11.5712439 17.57225281 10.74554443 17.53451538 C9.22795143 17.4659368 7.71016422 17.4014989 6.19219971 17.34170532 C1.11149868 17.11149868 1.11149868 17.11149868 0 16 C-0.07319621 13.30345146 -0.09242537 10.63308542 -0.0625 7.9375 C-0.05798828 7.17888672 -0.05347656 6.42027344 -0.04882812 5.63867188 C-0.0370068 3.75908129 -0.01907078 1.87953101 0 0 Z " fill="#183165" transform="translate(36,385)"/>
<path d="M0 0 C4.04879675 0.67479946 7.51908809 1.36404089 11.375 2.5625 C12.24898437 2.83191406 13.12296875 3.10132813 14.0234375 3.37890625 C15.00183594 3.68634766 15.00183594 3.68634766 16 4 C17.08392483 23.0073962 17.10957047 41.97013805 17 61 C17.60038086 61.13559326 18.20076172 61.27118652 18.81933594 61.41088867 C43.02267374 67.94947512 68.10522879 95.20479771 83 114 C83.90933567 115.11915682 84.81952377 116.23762144 85.73046875 117.35546875 C101.93232128 137.38567806 112.87504121 160.62512364 121 185 C123.46992499 179.10948147 125.92429706 173.21488716 128.2890625 167.28125 C136.26321398 147.42571475 145.59733507 129.70969349 159 113 C159.80566406 111.97132813 160.61132812 110.94265625 161.44140625 109.8828125 C166.25431949 103.83946753 171.4486721 98.3651887 177 93 C177.804375 92.175 178.60875 91.35 179.4375 90.5 C185.5191071 84.56672478 191.76526192 79.01464645 198.625 74 C199.17071152 73.59360291 199.71642303 73.18720581 200.27867126 72.76849365 C203.48692044 70.47283697 206.40203079 68.74389189 210.16748047 67.52954102 C214.88272876 65.86759517 218.91742334 64.07073862 222 60 C224.87832563 51.09572244 223.81862944 41.15631877 223.5 31.9375 C223.46794044 29.32885573 223.44312406 26.72011174 223.42578125 24.11132812 C223.3676608 17.73734037 223.21900867 11.37038123 223 5 C225.26882087 4.16080602 227.53977027 3.32848276 229.8125 2.5 C230.45509766 2.26152344 231.09769531 2.02304688 231.75976562 1.77734375 C234.64933739 0.72931254 236.90076061 0 240 0 C240 22.77 240 45.54 240 69 C232.41 73.29 224.82 77.58 217 82 C205.33168016 89.37525877 194.42595633 97.55008882 184.2734375 106.9140625 C182.1610576 108.8522255 180.00001928 110.71023271 177.8125 112.5625 C174.49094526 115.45804371 171.60561282 118.5681408 168.76171875 121.9296875 C166.99587772 124.00484436 165.15941175 125.99695757 163.3125 128 C153.50239047 139.06489099 145.24371859 151.13604808 138 164 C137.57944336 164.74636719 137.15888672 165.49273437 136.72558594 166.26171875 C134.19613238 170.76597011 131.69291022 175.28417417 129.20507812 179.81152344 C127.14799887 183.54727272 125.07360719 187.27340668 123 191 C119.60165896 186.92989387 116.72758364 182.64386843 113.875 178.1875 C113.39345459 177.44121338 112.91190918 176.69492676 112.41577148 175.92602539 C110.06484637 172.2707856 107.74328533 168.60110435 105.48046875 164.890625 C97.4970568 151.81107614 88.71992339 139.55269094 78.21484375 128.3671875 C76.31487069 126.33652847 74.52753551 124.26158882 72.75 122.125 C53.10544459 99.75203411 26.4207427 83.21037135 0 70 C0 46.9 0 23.8 0 0 Z " fill="#3066B7" transform="translate(128,206)"/>
<path d="M0 0 C2.56364399 0.62057657 5.12584926 1.24629199 7.6875 1.875 C8.40873047 2.04902344 9.12996094 2.22304688 9.87304688 2.40234375 C13.72028845 3.35097866 17.35715569 4.40490841 21 6 C20.33664048 20.73115627 18.64116785 35.35145757 17 50 C17.94746094 50.06586304 17.94746094 50.06586304 18.9140625 50.13305664 C85.0061418 55.36494945 158.13709176 84.95008071 206 131 C202.06686043 131 200.46098366 129.58364417 197.1640625 127.45703125 C144.76815866 94.3167855 83.74802069 79.41502158 22.80908203 72.43798828 C17.82975495 71.86543907 12.85436172 71.26206101 7.87866211 70.65893555 C3.25325243 70.09910021 -1.37330659 69.54910293 -6 69 C-6.21833528 60.95870576 -5.53404724 53.10865325 -4.6875 45.1171875 C-4.55432373 43.82177032 -4.42114746 42.52635315 -4.28393555 41.19168091 C-3.93331377 37.78170935 -3.57664677 34.37239758 -3.21862793 30.9631958 C-2.85296768 27.47064021 -2.4931513 23.97748291 -2.1328125 20.484375 C-1.42752686 13.65565698 -0.71583981 6.82761951 0 0 Z " fill="#0B6398" transform="translate(35,297)"/>
<path d="M0 0 C0.9583374 0.00523682 1.9166748 0.01047363 2.90405273 0.01586914 C3.83548096 0.0183667 4.76690918 0.02086426 5.7265625 0.0234375 C7.51404907 0.03709351 7.51404907 0.03709351 9.33764648 0.05102539 C13.11202148 0.07165039 16.88639648 0.09227539 20.77514648 0.11352539 C21.10514648 10.34352539 21.43514648 20.57352539 21.77514648 31.11352539 C25.22274414 31.09612305 25.22274414 31.09612305 28.73999023 31.07836914 C30.95735537 31.0705783 33.17471899 31.0645017 35.39208984 31.05859375 C36.93734414 31.05355399 38.48259365 31.0467222 40.02783203 31.03808594 C42.24439677 31.02600463 44.46089867 31.02029366 46.67749023 31.01586914 C47.37228989 31.01070786 48.06708954 31.00554657 48.78294373 31.00022888 C50.44743978 31.00003262 52.11180147 31.0516341 53.77514648 31.11352539 C54.77514648 32.11352539 54.77514648 32.11352539 54.88867188 34.79736328 C54.88081665 36.54907837 54.88081665 36.54907837 54.87280273 38.33618164 C54.86796875 40.22626953 54.86796875 40.22626953 54.86303711 42.15454102 C54.85468052 43.49503648 54.84621556 44.83553127 54.83764648 46.17602539 C54.83263309 47.52042481 54.8280699 48.86482599 54.82397461 50.20922852 C54.81214136 53.5107048 54.79565619 56.81209342 54.77514648 60.11352539 C43.30888317 60.91579354 32.22920307 61.22640084 20.77514648 60.11352539 C20.82844116 61.23380127 20.82844116 61.23380127 20.8828125 62.37670898 C21.04001953 65.74708074 21.18893662 69.11776849 21.33764648 72.48852539 C21.42175781 74.25196289 21.42175781 74.25196289 21.50756836 76.05102539 C21.5559082 77.17250977 21.60424805 78.29399414 21.65405273 79.44946289 C21.70118408 80.48635254 21.74831543 81.52324219 21.796875 82.59155273 C21.77514648 85.11352539 21.77514648 85.11352539 20.77514648 87.11352539 C16.96266222 87.14239775 13.15020579 87.16028031 9.33764648 87.17602539 C8.2490332 87.1844043 7.16041992 87.1927832 6.03881836 87.20141602 C5.0043457 87.20463867 3.96987305 87.20786133 2.90405273 87.21118164 C1.94571533 87.21641846 0.98737793 87.22165527 0 87.22705078 C-2.22485352 87.11352539 -2.22485352 87.11352539 -3.22485352 86.11352539 C-3.31222997 84.25982928 -3.33183505 82.40284998 -3.32250977 80.54711914 C-3.31928711 79.42241211 -3.31606445 78.29770508 -3.31274414 77.13891602 C-3.30436523 75.95491211 -3.29598633 74.7709082 -3.28735352 73.55102539 C-3.2828418 72.3631543 -3.27833008 71.1752832 -3.27368164 69.95141602 C-3.26185026 67.00540313 -3.24536638 64.05948858 -3.22485352 61.11352539 C-4.02705322 61.11876221 -4.82925293 61.12399902 -5.65576172 61.12939453 C-9.28295105 61.15015436 -12.91012788 61.16318241 -16.53735352 61.17602539 C-17.79999023 61.1844043 -19.06262695 61.1927832 -20.36352539 61.20141602 C-21.57202148 61.20463867 -22.78051758 61.20786133 -24.02563477 61.21118164 C-25.14107666 61.21641846 -26.25651855 61.22165527 -27.40576172 61.22705078 C-30.22485352 61.11352539 -30.22485352 61.11352539 -33.22485352 60.11352539 C-33.22485352 50.87352539 -33.22485352 41.63352539 -33.22485352 32.11352539 C-29.92750706 31.0144099 -27.49526606 30.99957979 -24.02563477 31.01586914 C-22.81713867 31.0190918 -21.60864258 31.02231445 -20.36352539 31.02563477 C-18.46957031 31.03820312 -18.46957031 31.03820312 -16.53735352 31.05102539 C-14.62599609 31.05779297 -14.62599609 31.05779297 -12.67602539 31.06469727 C-9.52558788 31.07649666 -6.37524403 31.09295942 -3.22485352 31.11352539 C-3.23270874 29.75819702 -3.23270874 29.75819702 -3.24072266 28.37548828 C-3.25773037 25.0340105 -3.27028685 21.69257847 -3.27978516 18.35107422 C-3.28482452 16.90282467 -3.29165605 15.45458022 -3.30029297 14.00634766 C-3.31237599 11.92877951 -3.31808563 9.85127842 -3.32250977 7.77368164 C-3.32774658 6.52208252 -3.3329834 5.2704834 -3.33837891 3.98095703 C-3.18720633 0.16263041 -3.18720633 0.16263041 0 0 Z " fill="#3F5488" transform="translate(468.224853515625,233.886474609375)"/>
<path d="M0 0 C4.58224662 18.91889861 8.66696504 37.81575249 12 57 C8.60939657 58.69530171 4.74358143 58.61969642 1.0078125 58.98046875 C-0.89647485 59.17303748 -2.80068734 59.3663476 -4.70483398 59.56030273 C-6.21410965 59.71292068 -6.21410965 59.71292068 -7.75387573 59.86862183 C-37.1099889 62.8678692 -66.71033155 66.25522433 -95 75 C-95.63147949 75.19487 -96.26295898 75.38973999 -96.91357422 75.59051514 C-150.20467984 91.89264468 -150.20467984 91.89264468 -197 121 C-197.66 120.67 -198.32 120.34 -199 120 C-182.63139676 102.90390329 -163.42424237 90.6435437 -143 79 C-142.31292969 78.60538574 -141.62585938 78.21077148 -140.91796875 77.80419922 C-104.80915194 57.21267132 -55.08420606 39 -13 39 C-13.28617188 37.72640625 -13.57234375 36.4528125 -13.8671875 35.140625 C-15.00389059 30.02044916 -16.08004695 24.88962093 -17.125 19.75 C-17.39763672 18.44289063 -17.39763672 18.44289063 -17.67578125 17.109375 C-18.50437172 13.02249268 -19.26004737 9.19543085 -19 5 C-16.2092793 4.16338138 -13.41751988 3.33057263 -10.625 2.5 C-9.43390625 2.14228516 -9.43390625 2.14228516 -8.21875 1.77734375 C-7.45820313 1.55175781 -6.69765625 1.32617188 -5.9140625 1.09375 C-5.2123291 0.88427734 -4.5105957 0.67480469 -3.78759766 0.45898438 C-2 0 -2 0 0 0 Z " fill="#48235B" transform="translate(460,309)"/>
<path d="M0 0 C18 5 18 5 19 6 C19.09843348 7.52290381 19.12798584 9.05033503 19.12939453 10.57641602 C19.13254669 11.55155655 19.13569885 12.52669708 19.13894653 13.53138733 C19.1369223 14.59481857 19.13489807 15.65824982 19.1328125 16.75390625 C19.13424759 18.38802711 19.13424759 18.38802711 19.13571167 20.05516052 C19.13639407 22.36953794 19.13453565 24.68391725 19.13037109 26.99829102 C19.12505953 30.52299379 19.13029538 34.04756703 19.13671875 37.57226562 C19.13605727 39.82031278 19.13477468 42.06835985 19.1328125 44.31640625 C19.13483673 45.36566788 19.13686096 46.4149295 19.13894653 47.49598694 C19.12125695 53.09219606 18.83242145 58.46443868 18 64 C18.67587158 64.17595703 19.35174316 64.35191406 20.0480957 64.53320312 C60.93812579 75.3984405 98.44864621 96.25342767 131 123 C131.55284668 123.44988281 132.10569336 123.89976562 132.67529297 124.36328125 C146.19979676 135.42276607 158.89316955 147.50829724 169.5625 161.375 C170.39406616 162.45430786 170.39406616 162.45430786 171.24243164 163.55541992 C175 168.60334369 175 168.60334369 175 172 C174.62230469 171.59910156 174.24460938 171.19820312 173.85546875 170.78515625 C169.09632151 165.86997139 163.95615927 161.5872112 158.61914062 157.31591797 C156.91786815 155.93324929 155.24711184 154.51909225 153.578125 153.09765625 C142.06462429 143.38037163 129.66919219 135.12870828 117 127 C116.30583984 126.55172852 115.61167969 126.10345703 114.89648438 125.64160156 C89.59030651 109.4277078 62.13385861 97.65344628 33.5625 88.625 C32.91584381 88.41935425 32.26918762 88.2137085 31.60293579 88.00183105 C21.14589857 84.70025807 10.75981422 82.39106983 0 80 C0 53.6 0 27.2 0 0 Z " fill="#0E74A9" transform="translate(70,251)"/>
<path d="M0 0 C0 26.07 0 52.14 0 79 C-16.335 83.455 -16.335 83.455 -33 88 C-76.1298256 102.7823999 -116.79663686 123.72465162 -150.55078125 154.80078125 C-154.10611104 157.99320656 -157.82479254 160.97202785 -161.5546875 163.95703125 C-163.83935303 165.86578536 -165.93250978 167.86038803 -168 170 C-168.66 169.67 -169.32 169.34 -170 169 C-163.75668068 160.191596 -156.85188078 152.35391389 -149.43164062 144.52880859 C-147.61042918 142.58398832 -145.86078763 140.58367614 -144.125 138.5625 C-138.57334146 132.15149383 -132.44566686 126.49613188 -126 121 C-125.18402344 120.28328125 -124.36804688 119.5665625 -123.52734375 118.828125 C-108.6608349 106.03163637 -92.22789601 95.32686579 -75 86 C-74.32018066 85.63181152 -73.64036133 85.26362305 -72.93994141 84.88427734 C-56.08274972 75.87246667 -36.92693845 67.15448974 -18 64 C-18 44.53 -18 25.06 -18 5 C-3 0 -3 0 0 0 Z " fill="#992953" transform="translate(425,253)"/>
<path d="M0 0 C1.35602585 0.26136553 2.70974092 0.53472143 4.0625 0.8125 C5.19365234 1.03873047 5.19365234 1.03873047 6.34765625 1.26953125 C9.67322457 2.18540942 12.82951751 3.64122179 16 5 C16.33 24.8 16.66 44.6 17 65 C21.393125 67.0625 25.78625 69.125 30.3125 71.25 C47.46652819 79.45213872 63.26889412 88.92348427 78 101 C78.52271484 101.42120117 79.04542969 101.84240234 79.58398438 102.27636719 C94.64896863 114.46101368 109.51005061 128.35178321 121 144 C121.65476318 144.87277588 121.65476318 144.87277588 122.32275391 145.76318359 C128.69075403 154.28465525 134.39518095 163.08343556 139.6875 172.3125 C140.20481689 173.21403809 140.72213379 174.11557617 141.25512695 175.04443359 C145.17975323 182.02582289 145.17975323 182.02582289 146 186 C141.01066107 182.05010668 137.1783038 177.89022667 133.26953125 172.8828125 C126.25327196 163.9705933 118.76591584 155.58777149 110.75 147.5625 C110.10095703 146.91265137 109.45191406 146.26280273 108.78320312 145.59326172 C89.20877457 126.24239897 66.37718512 109.73774199 42 97 C41.3699707 96.66452148 40.73994141 96.32904297 40.09082031 95.98339844 C29.81805824 90.5320138 19.22808401 86.11429605 8.37670898 81.94799805 C5.22483144 80.69080847 2.1153597 79.34514545 -1 78 C-1.02346414 70.63550626 -1.04108471 63.27102094 -1.05181217 55.906497 C-1.05696814 52.48460735 -1.06392812 49.06274378 -1.07543945 45.64086914 C-1.12292063 30.39382484 -1.07061635 15.21433942 0 0 Z " fill="#1074AC" transform="translate(101,223)"/>
<path d="M0 0 C3.62011046 2.33296007 5.89022378 4.96794755 7.8125 8.8125 C8.32266543 14.39922959 8.50398516 19.26995618 6.1875 24.4375 C3.48819258 27.13680742 1.41735966 27.73598027 -2.1875 28.8125 C-2.15269531 29.62589844 -2.11789062 30.43929687 -2.08203125 31.27734375 C-1.38867545 60.62940591 -12.55635492 88.57617406 -32.71655273 109.79174805 C-40.30246322 117.56345823 -48.31629383 123.86502896 -57.45410156 129.69873047 C-61.45581212 132.2699704 -65.31860816 135.04721426 -69.1875 137.8125 C-70.11691406 138.47378906 -71.04632813 139.13507813 -72.00390625 139.81640625 C-101.65826479 161.42890484 -120.04614334 192.01664717 -126.4375 228.25 C-126.70420487 230.10183761 -126.95543787 231.95600298 -127.1875 233.8125 C-127.35378906 235.0190625 -127.35378906 235.0190625 -127.5234375 236.25 C-129.37682502 252.2792975 -128.21485228 268.76012068 -127.1875 284.8125 C-128.1775 284.8125 -129.1675 284.8125 -130.1875 284.8125 C-141.09145518 253.33796269 -139.70457002 217.36351025 -125.625 187.1875 C-114.55881749 164.51354983 -97.6073665 145.86290477 -77.4375 130.875 C-76.74358154 130.35631348 -76.04966309 129.83762695 -75.3347168 129.30322266 C-71.29791641 126.30828219 -67.2066204 123.44163527 -63 120.6875 C-38.81093468 104.83608253 -22.24640323 84.29893691 -15.1875 55.8125 C-14.35918449 51.82919931 -13.73667646 47.84306297 -13.1875 43.8125 C-13.09726562 43.15797852 -13.00703125 42.50345703 -12.9140625 41.82910156 C-12.31790199 37.49283946 -11.74500533 33.15392449 -11.1875 28.8125 C-12.12980469 28.54308594 -13.07210937 28.27367188 -14.04296875 27.99609375 C-18.10689795 26.4664409 -19.1262375 24.55330972 -21.1875 20.8125 C-22.86124639 15.79126084 -22.74794001 11.49017993 -20.6875 6.625 C-16.44956268 -1.08714743 -7.96762983 -2.96833268 0 0 Z M-12.6875 9.9375 C-14.4284198 12.73379953 -14.4284198 12.73379953 -14.1875 15.9375 C-13.3800204 18.83439293 -13.3800204 18.83439293 -11.5 20.75 C-8.28806066 22.22575591 -6.52275198 21.87694212 -3.1875 20.8125 C-1.08985835 19.29355194 -1.08985835 19.29355194 -0.1875 16.8125 C-0.37208358 11.76142809 -0.37208358 11.76142809 -3.1875 7.8125 C-7.43096941 7.26242063 -9.36788928 7.11583089 -12.6875 9.9375 Z " fill="#DF6B39" transform="translate(356.1875,44.1875)"/>
<path d="M0 0 C0 25.08 0 50.16 0 76 C-12 81 -12 81 -16.66015625 82.88671875 C-39.95376728 92.35625919 -62.01462807 104.40537861 -81 121 C-82.74333671 122.38343851 -84.49310481 123.75882129 -86.25 125.125 C-90.2075542 128.26309273 -93.75352251 131.64113523 -97.265625 135.265625 C-99 137 -99 137 -101.5625 139 C-104.4153223 141.34077727 -106.67193959 143.947274 -109.0625 146.75 C-111.07691011 149.08931497 -113.15863038 151.35437013 -115.25 153.625 C-119.30900977 158.11742946 -123.04302245 162.80269431 -126.74829102 167.58496094 C-131.64443956 173.88357581 -136.80322221 179.94881968 -142 186 C-142.66 185.67 -143.32 185.34 -144 185 C-137.21570267 172.27820306 -130.10400802 159.92874096 -122 148 C-121.37593262 147.07646729 -121.37593262 147.07646729 -120.73925781 146.13427734 C-109.06341494 128.97236239 -95.04475686 113.20842203 -79 100 C-78.49839355 99.57928223 -77.99678711 99.15856445 -77.47998047 98.72509766 C-63.11127088 86.70515906 -47.96158693 76.94141959 -31 69 C-29.89785156 68.47148437 -28.79570312 67.94296875 -27.66015625 67.3984375 C-20.43610335 64 -20.43610335 64 -17 64 C-17 44.86 -17 25.72 -17 6 C-3.8 0 -3.8 0 0 0 Z " fill="#7C2862" transform="translate(395,226)"/>
<path d="M0 0 C4.37317227 2.18658613 7.43901378 4.82654097 10 9 C11.50423201 14.73488454 11.16842141 18.08037675 8.25 23.23828125 C6.04303315 26.34872515 3.37646579 28.3117671 0 30 C-1.31291016 29.85691406 -1.31291016 29.85691406 -2.65234375 29.7109375 C-7.83433589 29.18103105 -11.51321087 28.89316809 -15.8125 32.09375 C-17.62636873 34.01558711 -19.39084418 35.94867901 -21.140625 37.92578125 C-24.00492944 41.13560493 -27.16890868 43.60602292 -30.6875 46.0625 C-31.27136475 46.47032715 -31.85522949 46.8781543 -32.45678711 47.29833984 C-37.54096964 50.7822393 -42.77922311 54.01463747 -48.0246582 57.24804688 C-58.8228363 63.93817976 -68.78696073 71.22490449 -78 80 C-78.97453125 80.84498047 -78.97453125 80.84498047 -79.96875 81.70703125 C-99.76072488 99.67392648 -109.84392013 129.32427686 -115.3125 154.75 C-115.45977539 155.43247803 -115.60705078 156.11495605 -115.75878906 156.81811523 C-118.91075914 172.72006265 -119.26191784 188.40490268 -119.125 204.5625 C-119.11493942 206.65299045 -119.10581907 208.74348565 -119.09765625 210.83398438 C-119.07591124 215.88944296 -119.04155506 220.94466705 -119 226 C-127.09613413 218.4975003 -126.77567325 200.54183251 -127.20776367 189.8269043 C-127.32478548 185.61346942 -127.33423344 181.40223982 -127.3125 177.1875 C-127.31067719 176.44709473 -127.30885437 175.70668945 -127.30697632 174.94384766 C-127.25930827 163.40414243 -126.67216949 152.25940707 -124 141 C-123.83371094 140.26507324 -123.66742188 139.53014648 -123.49609375 138.77294922 C-115.6177644 104.75753278 -95.64103523 76.80984117 -68 56 C-67.113125 55.319375 -66.22625 54.63875 -65.3125 53.9375 C-60.90059007 50.686619 -56.4581754 48.20926127 -51.5 45.875 C-45.37067554 42.91462375 -39.94775177 39.36568356 -34.4375 35.375 C-33.67566406 34.82440918 -32.91382813 34.27381836 -32.12890625 33.70654297 C-28.91468492 31.33376703 -25.87240978 28.98276438 -23.09765625 26.1015625 C-22.40542969 25.40804687 -21.71320313 24.71453125 -21 24 C-20.34 24 -19.68 24 -19 24 C-19.495 22.9790625 -19.495 22.9790625 -20 21.9375 C-21.59749762 17.24485074 -21.55433585 13.53982182 -19.875 8.875 C-14.8471364 1.16560915 -8.93333293 -0.98953842 0 0 Z M-10.4375 10.125 C-12.24870485 12.91225693 -12.24870485 12.91225693 -12 16.125 C-11.18755589 19.00935665 -11.18755589 19.00935665 -9.375 20.9375 C-5.92482276 22.48100034 -3.60000284 21.93333407 0 21 C2.32749345 17.50875983 2.50299316 16.10777749 2 12 C0.5 9.5 0.5 9.5 -2 8 C-5.9976743 7.25043607 -7.34677052 7.43051789 -10.4375 10.125 Z " fill="#D8603B" transform="translate(365,137)"/>
<path d="M0 0 C4.19793779 2.43260781 7.13450725 5.23244697 8.5625 9.9375 C9.41953586 14.70590162 7.97946422 18.58901114 6.1875 23 C5.87351564 26.34916656 7.63044869 28.99752212 9 32 C12.03517961 44.4259031 9.51424814 57.27304631 3.25 68.3125 C-2.02198064 76.39267134 -8.68196208 82.80575583 -16 89 C-22.13909267 94.32699222 -27.87543225 99.68443463 -33 106 C-33.75925781 106.91007812 -34.51851562 107.82015625 -35.30078125 108.7578125 C-55.72238057 133.79489447 -65.19442522 164.4168836 -65.3125 196.4375 C-65.31644775 197.21002106 -65.32039551 197.98254211 -65.32446289 198.7784729 C-65.35719513 212.5208558 -63.99649887 225.55360981 -61 239 C-61.66 239 -62.32 239 -63 239 C-78.07557119 206.73827765 -76.39972709 169.62092381 -64.86328125 136.57446289 C-55.80232336 111.88155482 -38.57849968 92.93700778 -18.81640625 76.14453125 C-7.77253156 66.73678615 -1.1237436 58.05233617 0.89453125 43.44140625 C1.07034412 37.70469745 -0.33928337 32.45536483 -2 27 C-3.175625 26.95875 -4.35125 26.9175 -5.5625 26.875 C-10.62564008 26.27138722 -13.62899271 23.68368043 -17 20 C-18.73571782 16.52856436 -18.46645793 12.79556182 -18 9 C-13.92309465 1.13739683 -8.78722744 -2.19680686 0 0 Z M-11 9 C-11.97868153 11.86076138 -12.22135111 13.38702769 -11.1875 16.25 C-10.10600632 18.15074924 -10.10600632 18.15074924 -8 19 C-4.5 19.25 -4.5 19.25 -1 19 C1.36410488 17.06268472 1.36410488 17.06268472 1.3125 13.5625 C1.26665828 10.14346334 1.26665828 10.14346334 -0.125 8.0625 C-4.14584048 5.78402373 -7.31852809 6.54568539 -11 9 Z " fill="#E53759" transform="translate(270,64)"/>
<path d="M0 0 C3.60553231 3.32818367 4.70241534 6.13945058 5 11 C4.5978125 12.4540625 4.5978125 12.4540625 4.1875 13.9375 C3.67842762 16.90543169 3.67842762 16.90543169 5.12939453 18.54248047 C5.64614746 19.08275879 6.16290039 19.62303711 6.6953125 20.1796875 C10.0282192 23.89706653 12.39005406 27.77077121 14.6875 32.1875 C15.07615234 32.9292749 15.46480469 33.6710498 15.86523438 34.43530273 C18.91596957 40.44907098 20.91290306 46.32502159 22 53 C22.12761719 53.71285156 22.25523437 54.42570312 22.38671875 55.16015625 C25.25555589 73.9007417 19.64017799 93.67862113 9.08984375 109.26171875 C1.9246572 118.65012206 -6.46402114 126.48035836 -15.48828125 134.04296875 C-47.4834622 160.86024966 -66.56377681 194.17496408 -74.9453125 235.07275391 C-75.30302734 236.78084229 -75.30302734 236.78084229 -75.66796875 238.5234375 C-75.87703857 239.55388184 -76.0861084 240.58432617 -76.30151367 241.64599609 C-76.6472644 242.81122803 -76.6472644 242.81122803 -77 244 C-77.66 244.33 -78.32 244.66 -79 245 C-79.20139209 235.4562524 -79.38179814 226.30962447 -77 217 C-76.81695312 216.2682959 -76.63390625 215.5365918 -76.4453125 214.78271484 C-68.78125926 184.62915969 -54.36346018 160.3702801 -33 138 C-32.23816406 137.19691406 -31.47632813 136.39382812 -30.69140625 135.56640625 C-26.88469635 131.65112708 -22.95577105 128.09478934 -18.6875 124.6875 C-2.69610045 111.76447823 9.33715577 96.85048693 13 76 C14.47529916 56.28796835 11.07362556 41.52260175 0.5234375 24.63671875 C-0.23066406 23.82654297 -0.23066406 23.82654297 -1 23 C-2.97896244 22.96755799 -4.96088817 22.94513763 -6.9375 23.046875 C-10.89972666 22.95682439 -13.84175727 20.9585457 -16.8125 18.5 C-19.6811661 14.87642177 -19.44681893 10.39085523 -19 6 C-17.94164623 3.02338002 -17.00004263 1.61152032 -14.30078125 -0.0390625 C-9.24014276 -2.32579502 -5.03034042 -2.45382459 0 0 Z M-11.25 5.6875 C-13.18010547 7.86904316 -13.18010547 7.86904316 -13.4375 10.5625 C-13.14003166 12.99444204 -13.14003166 12.99444204 -11.9375 14.875 C-8.79705307 16.69848531 -6.4014687 15.8658284 -3 15 C-0.72328262 12.25158089 -0.72328262 12.25158089 -1.1875 9.5 C-2.06622828 6.79622066 -2.68451988 5.62941194 -5 4 C-8.93541667 3.6 -8.93541667 3.6 -11.25 5.6875 Z " fill="#EF493D" transform="translate(291,28)"/>
<path d="M0 0 C3.66422065 2.13746204 5.37726527 4.14776887 7 8 C7.74148241 12.74203866 7.43787689 16.16954383 5.1875 20.4375 C2.55891585 23.51669858 1.04485236 24.89914553 -3.03515625 25.29296875 C-6.17084158 25.67365495 -6.17084158 25.67365495 -7.43359375 28.30078125 C-7.76488281 29.29464844 -8.09617187 30.28851563 -8.4375 31.3125 C-13.16127593 43.95906468 -21.05976509 56.67296139 -31 66 C-28.98301763 70.23097231 -26.85738372 74.19909717 -23 77 C-20.59076094 77.094818 -18.53986864 76.69542003 -16.1796875 76.2265625 C-14 76 -14 76 -10.625 77.5625 C-7.15381971 80.78573884 -5.1543178 83.35321596 -4.87109375 88.2109375 C-5.1087097 92.5456285 -5.63874204 94.55537481 -8.4375 98 C-12.55009813 101.20983269 -15.8697024 101.55249359 -21 101 C-24.67248378 99.36778499 -27.04226138 97.52392951 -29 94 C-30.13453843 89.20002972 -30.09331236 86.43289676 -28 82 C-27.65386277 78.93950063 -27.65386277 78.93950063 -29.75 77.17578125 C-30.4925 76.56089844 -31.235 75.94601563 -32 75.3125 C-32.7425 74.68988281 -33.485 74.06726563 -34.25 73.42578125 C-35.11625 72.72001953 -35.11625 72.72001953 -36 72 C-39.53643018 73.62895232 -42.5996324 75.74672838 -45.8125 77.9375 C-58.52003953 86.31543379 -72.77639781 92.18231203 -86.6875 98.25 C-112.6808572 109.62835387 -131.63345383 128.60090783 -145.5 153.15625 C-145.995 153.7646875 -146.49 154.373125 -147 155 C-148.32 155 -149.64 155 -151 155 C-150.40444952 150.17976332 -148.36458148 146.52694285 -146 142.375 C-145.39224731 141.3077771 -145.39224731 141.3077771 -144.7722168 140.21899414 C-141.09754545 133.92087933 -136.88336954 128.41934912 -132 123 C-131.49339844 122.41863281 -130.98679687 121.83726562 -130.46484375 121.23828125 C-113.29955278 101.55703746 -92.7212408 91.04916351 -68.89135742 80.92993164 C-57.85662762 76.21326567 -48.0390977 70.94969504 -39 63 C-38.24976563 62.34515625 -37.49953125 61.6903125 -36.7265625 61.015625 C-26.77162455 51.72434958 -17.48487383 38.31719642 -14 25 C-14.6708414 22.71325718 -14.6708414 22.71325718 -16 21 C-18.43291824 17.21546051 -18.55880919 13.37442819 -18 9 C-14.44575526 0.76911743 -8.46760909 -1.39269886 0 0 Z M-10.375 7.625 C-12.29807021 9.94181879 -12.29807021 9.94181879 -11.9375 13.0625 C-10.85657525 16.75518675 -10.85657525 16.75518675 -8 19 C-4.42243314 19.00082535 -4.42243314 19.00082535 -1 18 C1.36139302 15.10538099 1.36139302 15.10538099 0.8125 11.4375 C0.35160238 7.74174248 0.35160238 7.74174248 -3 6 C-6.31702672 5.4896882 -7.58054426 5.71300397 -10.375 7.625 Z M-20.875 82.9375 C-23.34564354 84.92418734 -23.34564354 84.92418734 -23.5625 88.5 C-23.31179699 91.97905036 -23.31179699 91.97905036 -21.3125 94 C-18.35711914 95.27800253 -17.01001617 95.08051862 -14 94 C-12 93 -12 93 -11 91 C-11.23477199 87.35458155 -11.23477199 87.35458155 -12 84 C-15.46011373 82.47111254 -17.21280236 81.74330512 -20.875 82.9375 Z " fill="#F56D2D" transform="translate(417,109)"/>
<path d="M0 0 C4.35660965 3.03949511 6.99101952 6.22877342 9.0625 11.125 C11.30820972 24.59925834 4.4627078 35.72532814 -2.00488281 47.01977539 C-18.17568266 75.32544114 -23.17084313 108.23901446 -14.76171875 139.95214844 C-13.89286128 143.0389567 -12.96948743 146.10063676 -11.984375 149.15234375 C-11.3125 151.875 -11.3125 151.875 -12.3125 154.875 C-27.50366252 125.6448137 -30.61423519 95.83915375 -20.63525391 64.17431641 C-16.86907678 53.11841635 -11.3744612 42.58272985 -5.88671875 32.296875 C-0.5614146 22.64856464 -0.5614146 22.64856464 -0.3125 11.875 C-1.02087088 9.17903709 -1.02087088 9.17903709 -3.3125 7.875 C-9.80891328 6.62061126 -14.88290273 8.37464261 -20.3125 11.875 C-30.88868971 19.21358061 -36.73046525 31.82633767 -40.3125 43.875 C-39.714375 44.143125 -39.11625 44.41125 -38.5 44.6875 C-35.00161463 46.58662349 -33.57904546 48.07536361 -32.3125 51.875 C-31.77326175 57.59092544 -32.67815542 60.43302329 -36.3125 64.875 C-40.09279114 68.2531325 -42.89900185 68.43922668 -47.83203125 68.30078125 C-51.89315982 67.60367414 -53.56808026 65.90089869 -56.3125 62.875 C-58.10734541 57.49046376 -58.14557553 52.67444314 -55.75 47.5 C-53.3125 44.875 -53.3125 44.875 -49.75 43.8125 C-46.1205166 42.2734779 -46.1205166 42.2734779 -45.44140625 39.26171875 C-45.00607267 37.00393279 -44.57817817 34.74470449 -44.15625 32.484375 C-41.2440716 20.02672295 -32.78990739 9.85993826 -22.2890625 2.859375 C-14.72786164 -1.30025735 -8.27364989 -2.80991883 0 0 Z M-49.75 50.4375 C-51.65537189 52.90167281 -51.65537189 52.90167281 -51.1875 56.5 C-50.60509286 59.92042055 -50.60509286 59.92042055 -48.3125 61.875 C-43.6702566 62.32369173 -43.6702566 62.32369173 -39.375 60.8125 C-37.6984371 57.75523824 -37.94721023 55.2843712 -38.3125 51.875 C-39.29298938 49.81097315 -39.29298938 49.81097315 -41.3125 48.875 C-44.92831862 48.33647382 -46.65361489 48.45263775 -49.75 50.4375 Z " fill="#AF2991" transform="translate(203.3125,132.125)"/>
<path d="M0 0 C0 22.77 0 45.54 0 69 C-7.59 73.29 -15.18 77.58 -23 82 C-25.97 83.98 -28.94 85.96 -32 88 C-35.7697993 88.77995848 -37.68922619 88.84151679 -40.953125 86.74609375 C-43.98839323 84.28456525 -45.74384975 82.76845075 -47 79 C-41.47204601 73.77990283 -35.75888383 69.81278014 -29.125 66.125 C-28.27164062 65.6403125 -27.41828125 65.155625 -26.5390625 64.65625 C-20.71986607 61.35993304 -20.71986607 61.35993304 -18 60 C-17.67 41.85 -17.34 23.7 -17 5 C-3 0 -3 0 0 0 Z " fill="#818D81" transform="translate(368,206)"/>
<path d="M0 0 C0.7425 0.763125 1.485 1.52625 2.25 2.3125 C6.123662 6.09812423 8.55602121 8.24389184 14 9 C10.29839382 12.86922609 6.38115814 16.13587103 2.125 19.375 C-2.39092581 22.86149147 -6.63442273 26.37340204 -10.5625 30.52734375 C-12 32 -12 32 -15 34.4375 C-18.05979262 37.05107286 -20.56873059 39.80144775 -23.16796875 42.859375 C-24.35423461 44.24545963 -25.56410309 45.61182547 -26.80078125 46.953125 C-37.45325894 58.50985027 -46.30340498 71.33179533 -54 85 C-54.42055664 85.74636719 -54.84111328 86.49273437 -55.27441406 87.26171875 C-57.80386762 91.76597011 -60.30708978 96.28417417 -62.79492188 100.81152344 C-64.85200113 104.54727272 -66.92639281 108.27340668 -69 112 C-72.61498961 107.6997043 -75.60910487 103.10043997 -78.625 98.375 C-79.59624202 96.86190717 -80.56759187 95.34888356 -81.5390625 93.8359375 C-81.96396973 93.17126465 -82.38887695 92.5065918 -82.82666016 91.82177734 C-83.86851471 90.20414965 -84.93269855 88.60095218 -86 87 C-85.67 86.01 -85.34 85.02 -85 84 C-85 84.66 -85 85.32 -85 86 C-84.34 86 -83.68 86 -83 86 C-81.68 88.64 -80.36 91.28 -79 94 C-79.8604139 89.66770285 -79.8604139 89.66770285 -82 86 C-82.04063832 84.33382885 -82.042721 82.66611905 -82 81 C-79.08756611 82.45621695 -78.94403454 84.32413433 -77.8359375 87.34765625 C-77.43632812 88.42724609 -77.03671875 89.50683594 -76.625 90.61914062 C-76.00625 92.32360352 -76.00625 92.32360352 -75.375 94.0625 C-74.95476562 95.20267578 -74.53453125 96.34285156 -74.1015625 97.51757812 C-73.06132185 100.34277717 -72.02779268 103.17025365 -71 106 C-68.53007501 100.10948147 -66.07570294 94.21488716 -63.7109375 88.28125 C-55.73678602 68.42571475 -46.40266493 50.70969349 -33 34 C-32.19433594 32.97132813 -31.38867188 31.94265625 -30.55859375 30.8828125 C-25.74568051 24.83946753 -20.5513279 19.3651887 -15 14 C-14.195625 13.175 -13.39125 12.35 -12.5625 11.5 C-8.49679924 7.53346268 -4.23978603 3.77876075 0 0 Z " fill="#303E9A" transform="translate(320,285)"/>
<path d="M0 0 C3.07161701 2.55968084 4.75400473 4.05440101 5.2578125 8.0390625 C5.01716474 11.8186479 4.3412384 13.61001326 1.8125 16.5 C-2.32879599 18.70869119 -5.34488871 18.44136301 -9.8125 17.25 C-16.9905046 16.68701925 -24.03594264 24.30559605 -29.34765625 28.78125 C-57.05666436 52.93413169 -69.37726269 87.51504118 -74.0637207 123.20141602 C-74.54977294 126.80687206 -74.94584628 128.91876942 -77 132 C-77.62201935 111.72216922 -76.46703579 93.0474913 -69 74 C-68.58105469 72.90816406 -68.16210938 71.81632812 -67.73046875 70.69140625 C-62.18467528 56.98733809 -54.71799235 45.14142342 -45 34 C-44.40058594 33.24460937 -43.80117188 32.48921875 -43.18359375 31.7109375 C-39.14476448 26.77362137 -34.60492795 22.95868538 -29.5 19.1875 C-28.88302246 18.73117188 -28.26604492 18.27484375 -27.63037109 17.8046875 C-16.73201137 10 -16.73201137 10 -12 10 C-11.9175 8.906875 -11.835 7.81375 -11.75 6.6875 C-11 3 -11 3 -9.375 1.0625 C-5.93586846 -0.47605885 -3.72652863 -0.58839926 0 0 Z " fill="#E2483A" transform="translate(330,230)"/>
<path d="M0 0 C4.68145711 -0.02291088 9.36272102 -0.04283732 14.04418945 -0.05493164 C15.63794614 -0.05997157 17.23169819 -0.0668035 18.82543945 -0.07543945 C21.11150253 -0.08751999 23.39750467 -0.09323155 25.68359375 -0.09765625 C26.40026718 -0.10281754 27.11694061 -0.10797882 27.85533142 -0.11329651 C29.57063672 -0.11349263 31.28581266 -0.06192007 33 0 C34 1 34 1 34.11352539 3.68383789 C34.10828857 4.85164795 34.10305176 6.01945801 34.09765625 7.22265625 C34.09443359 8.48271484 34.09121094 9.74277344 34.08789062 11.04101562 C34.07953403 12.38151109 34.07106907 13.72200588 34.0625 15.0625 C34.0574866 16.40689942 34.05292342 17.7513006 34.04882812 19.09570312 C34.03699488 22.39717941 34.02050971 25.69856803 34 29 C22.5066022 29.80416669 11.48336812 30.02327043 0 29 C0 19.43 0 9.86 0 0 Z " fill="#1ABA92" transform="translate(489,265)"/>
<path d="M0 0 C0 25.08 0 50.16 0 76 C-2.475 76.99 -2.475 76.99 -5 78 C-5 77.34 -5 76.68 -5 76 C-3.02 75.505 -3.02 75.505 -1 75 C-1.33 67.41 -1.66 59.82 -2 52 C-3.98 52.495 -3.98 52.495 -6 53 C-9.07220303 52.55748069 -11.98194444 51.75451389 -15 51 C-15 55.29 -15 59.58 -15 64 C-15.66 64 -16.32 64 -17 64 C-17 44.86 -17 25.72 -17 6 C-3.8 0 -3.8 0 0 0 Z " fill="#A45447" transform="translate(395,226)"/>
<path d="M0 0 C1.81455688 0.07069702 1.81455688 0.07069702 3.66577148 0.14282227 C4.84083252 0.18592529 6.01589355 0.22902832 7.2265625 0.2734375 C8.7314624 0.33474854 10.2363623 0.39605957 11.78686523 0.45922852 C18.93342773 0.73766602 18.93342773 0.73766602 26.22436523 1.02172852 C26.22436523 10.59172852 26.22436523 20.16172852 26.22436523 30.02172852 C21.83124023 30.04235352 17.43811523 30.06297852 12.91186523 30.08422852 C10.83844849 30.09788452 10.83844849 30.09788452 8.72314453 30.11181641 C7.63428955 30.11431396 6.54543457 30.11681152 5.42358398 30.11938477 C4.30814209 30.12462158 3.1927002 30.1298584 2.04345703 30.13525391 C-0.77563477 30.02172852 -0.77563477 30.02172852 -3.77563477 29.02172852 C-3.80029358 25.05241862 -3.81847499 21.08313817 -3.83056641 17.11376953 C-3.83560533 15.76252466 -3.84243654 14.41128526 -3.85107422 13.06005859 C-3.86315896 11.12152417 -3.86833305 9.18295051 -3.87329102 7.24438477 C-3.87852783 6.07657471 -3.88376465 4.90876465 -3.88916016 3.70556641 C-3.73403216 0.03820703 -3.68585903 0.02885403 0 0 Z " fill="#2751B6" transform="translate(438.775634765625,264.978271484375)"/>
<path d="M0 0 C0.78375 0.495 1.5675 0.99 2.375 1.5 C2.1875 3.375 2.1875 3.375 1.375 5.5 C-1.77221508 7.46700943 -4.34951734 7.53611839 -7.9375 7.375 C-14.69486697 7.22907679 -20.1384013 10.4616729 -25.125 14.90625 C-32.66389315 22.91632397 -37.51241313 33.03038963 -40.625 43.5 C-40.026875 43.768125 -39.42875 44.03625 -38.8125 44.3125 C-35.31411463 46.21162349 -33.89154546 47.70036361 -32.625 51.5 C-32.08576175 57.21592544 -32.99065542 60.05802329 -36.625 64.5 C-40.40529114 67.8781325 -43.21150185 68.06422668 -48.14453125 67.92578125 C-52.20565982 67.22867414 -53.88058026 65.52589869 -56.625 62.5 C-58.41984541 57.11546376 -58.45807553 52.29944314 -56.0625 47.125 C-53.625 44.5 -53.625 44.5 -50.0625 43.4375 C-46.4330166 41.8984779 -46.4330166 41.8984779 -45.75390625 38.88671875 C-45.31857267 36.62893279 -44.89067817 34.36970449 -44.46875 32.109375 C-41.5565716 19.65172295 -33.10240739 9.48493826 -22.6015625 2.484375 C-14.92520541 -1.73860808 -8.2615468 -3.41857109 0 0 Z M-50.0625 50.0625 C-51.96787189 52.52667281 -51.96787189 52.52667281 -51.5 56.125 C-50.91759286 59.54542055 -50.91759286 59.54542055 -48.625 61.5 C-43.9827566 61.94869173 -43.9827566 61.94869173 -39.6875 60.4375 C-38.0109371 57.38023824 -38.25971023 54.9093712 -38.625 51.5 C-39.60548938 49.43597315 -39.60548938 49.43597315 -41.625 48.5 C-45.24081862 47.96147382 -46.96611489 48.07763775 -50.0625 50.0625 Z " fill="#4E8DE5" transform="translate(203.625,132.5)"/>
<path d="M0 0 C0.9583374 0.00523682 1.9166748 0.01047363 2.90405273 0.01586914 C3.83548096 0.0183667 4.76690918 0.02086426 5.7265625 0.0234375 C7.51404907 0.03709351 7.51404907 0.03709351 9.33764648 0.05102539 C13.11202148 0.07165039 16.88639648 0.09227539 20.77514648 0.11352539 C21.27014648 15.45852539 21.27014648 15.45852539 21.77514648 31.11352539 C13.52514648 31.11352539 5.27514648 31.11352539 -3.22485352 31.11352539 C-3.24776671 26.85930825 -3.26769241 22.60530383 -3.27978516 18.35107422 C-3.28482452 16.90282467 -3.29165605 15.45458022 -3.30029297 14.00634766 C-3.31237599 11.92877951 -3.31808563 9.85127842 -3.32250977 7.77368164 C-3.32774658 6.52208252 -3.3329834 5.2704834 -3.33837891 3.98095703 C-3.18720633 0.16263041 -3.18720633 0.16263041 0 0 Z " fill="#FEB20F" transform="translate(468.224853515625,233.886474609375)"/>
<path d="M0 0 C0 3.3 0 6.6 0 10 C-0.69037354 10.36762451 -1.38074707 10.73524902 -2.09204102 11.11401367 C-5.25157691 12.80014144 -8.40704444 14.49374939 -11.5625 16.1875 C-12.64853516 16.76564453 -13.73457031 17.34378906 -14.85351562 17.93945312 C-21.65340533 21.59375212 -21.65340533 21.59375212 -28.05859375 25.8828125 C-31 28 -31 28 -34.5 28.6875 C-39.15471834 27.77318033 -41.92728286 25.56747668 -45 22 C-45.33 21.01 -45.66 20.02 -46 19 C-40.62636113 13.98730466 -35.12463419 9.89978293 -28.75 6.25 C-27.91952148 5.77409424 -27.08904297 5.29818848 -26.23339844 4.80786133 C-17.80108472 0.12096851 -9.42782059 -4.07110435 0 0 Z " fill="#75425A" transform="translate(367,266)"/>
<path d="M0 0 C7.92 0 15.84 0 24 0 C24.19400242 4.12478993 24.38050052 8.24967835 24.5625 12.375 C24.61857422 13.550625 24.67464844 14.72625 24.73242188 15.9375 C24.78076172 17.05898438 24.82910156 18.18046875 24.87890625 19.3359375 C24.9260376 20.37282715 24.97316895 21.4097168 25.02172852 22.47802734 C25 25 25 25 24 27 C20.18751574 27.02887236 16.3750593 27.04675492 12.5625 27.0625 C11.47388672 27.07087891 10.38527344 27.07925781 9.26367188 27.08789062 C8.22919922 27.09111328 7.19472656 27.09433594 6.12890625 27.09765625 C5.17056885 27.10289307 4.21223145 27.10812988 3.22485352 27.11352539 C1 27 1 27 0 26 C-0.08748207 24.07332493 -0.10697334 22.14348139 -0.09765625 20.21484375 C-0.09443359 19.04501953 -0.09121094 17.87519531 -0.08789062 16.66992188 C-0.07951172 15.43822266 -0.07113281 14.20652344 -0.0625 12.9375 C-0.05798828 11.70193359 -0.05347656 10.46636719 -0.04882812 9.19335938 C-0.03699618 6.12888587 -0.01906008 3.06443707 0 0 Z " fill="#DA186F" transform="translate(465,294)"/>
<path d="M0 0 C1.35602585 0.26136553 2.70974092 0.53472143 4.0625 0.8125 C5.19365234 1.03873047 5.19365234 1.03873047 6.34765625 1.26953125 C9.67322457 2.18540942 12.82951751 3.64122179 16 5 C16.33 25.13 16.66 45.26 17 66 C16.34 66 15.68 66 15 66 C14.67 54.12 14.34 42.24 14 30 C9.71 29.34 5.42 28.68 1 28 C0.67 44.5 0.34 61 0 78 C-0.33 78 -0.66 78 -1 78 C-1.02346414 70.63550626 -1.04108471 63.27102094 -1.05181217 55.906497 C-1.05696814 52.48460735 -1.06392812 49.06274378 -1.07543945 45.64086914 C-1.12292063 30.39382484 -1.07061635 15.21433942 0 0 Z " fill="#46A0E2" transform="translate(101,223)"/>
<path d="M0 0 C4.04879675 0.67479946 7.51908809 1.36404089 11.375 2.5625 C12.24898437 2.83191406 13.12296875 3.10132813 14.0234375 3.37890625 C15.00183594 3.68634766 15.00183594 3.68634766 16 4 C17.08392483 23.0073962 17.10957047 41.97013805 17 61 C13.36846191 57.36846191 14.10954177 51.92440044 14 47 C14.15584102 40.65778138 14.56971113 34.32855624 15 28 C13.02090602 27.97313447 11.04171029 27.95366625 9.0625 27.9375 C7.96035156 27.92589844 6.85820312 27.91429687 5.72265625 27.90234375 C3.08552366 27.68737429 3.08552366 27.68737429 2 29 C1.89887187 31.93366968 1.8603096 34.84330173 1.8671875 37.77734375 C1.86623077 38.65902725 1.86527405 39.54071075 1.86428833 40.44911194 C1.86360641 42.31788199 1.86546149 44.18665439 1.86962891 46.05541992 C1.87497068 48.92176628 1.86968758 51.78795547 1.86328125 54.65429688 C1.86394215 56.46614618 1.86522357 58.27799539 1.8671875 60.08984375 C1.86516327 60.9513353 1.86313904 61.81282684 1.86105347 62.70042419 C1.75184921 66.98542245 1.75184921 66.98542245 3 71 C2.01 70.67 1.02 70.34 0 70 C0 46.9 0 23.8 0 0 Z " fill="#5987DD" transform="translate(128,206)"/>
<path d="M0 0 C0.02465746 4.1117256 0.04283959 8.22342278 0.05493164 12.33520508 C0.0599708 13.73495228 0.06680216 15.1346942 0.07543945 16.53442383 C0.0875232 18.54245777 0.09269807 20.55052957 0.09765625 22.55859375 C0.10551147 24.37315063 0.10551147 24.37315063 0.11352539 26.22436523 C0 29 0 29 -1 30 C-2.71887059 30.40116741 -4.45101911 30.74613708 -6.1875 31.0625 C-7.12980469 31.23910156 -8.07210938 31.41570312 -9.04296875 31.59765625 C-12 32 -12 32 -18 32 C-18 23.09 -18 14.18 -18 5 C-15.586875 4.175 -13.17375 3.35 -10.6875 2.5 C-9.93170654 2.23896484 -9.17591309 1.97792969 -8.3972168 1.70898438 C-5.47512677 0.72282302 -3.10385594 0 0 0 Z " fill="#626D71" transform="translate(425,253)"/>
<path d="M0 0 C4.40608743 2.16298837 7.1987497 4.39680479 9 9 C9.68829606 14.0729969 9.59408188 17.83305346 7.25 22.4375 C3.15805875 27.09776643 0.43064605 28.56879859 -5.75390625 29.06640625 C-10.22686128 28.93416236 -13.03479459 26.83477225 -16.3125 24 C-19.34090429 20.4107801 -19.33962228 16.77591541 -19.28125 12.28125 C-18.71166704 7.66129935 -15.85849254 4.95949167 -12.875 1.625 C-8.61227024 -0.78436899 -4.78472426 -0.75911491 0 0 Z M-11 9 C-12.56430248 12.12860495 -12.35627284 14.55602925 -12 18 C-9.95118716 20.63926358 -9.95118716 20.63926358 -7 22 C-3.75925076 22 -2.32888621 21.23110923 0.3125 19.375 C2.68736819 16.03259292 2.64405526 14.00745494 2 10 C-0.18498756 7.46808501 -0.18498756 7.46808501 -3 6 C-6.60777515 6 -8.06295544 6.9904432 -11 9 Z " fill="#DA3286" transform="translate(237,97)"/>
<path d="M0 0 C4.95 0 9.9 0 15 0 C15 10.56 15 21.12 15 32 C12.69 31.67 10.38 31.34 8 31 C7.34 31.33 6.68 31.66 6 32 C4.02 32 2.04 32 0 32 C0 21.44 0 10.88 0 0 Z " fill="#5A666D" transform="translate(352,234)"/>
<path d="M0 0 C-1.32684269 3.14445235 -2.4169563 4.58264454 -5.421875 6.19140625 C-6.11071777 6.57288818 -6.79956055 6.95437012 -7.50927734 7.34741211 C-8.24871582 7.74839111 -8.9881543 8.14937012 -9.75 8.5625 C-25.98183507 17.75710456 -39.70036813 29.65065135 -50.74121094 44.76123047 C-52.70537542 47.43581991 -54.19870565 49.13247043 -57 51 C-55.64760673 46.35421379 -53.6933138 42.46618416 -51.0625 38.4375 C-50.6691748 37.83397705 -50.27584961 37.2304541 -49.87060547 36.60864258 C-41.51021125 24.06805125 -17.38615669 -6.73012517 0 0 Z " fill="#E8792F" transform="translate(335,259)"/>
<path d="M0 0 C0.33 0.66 0.66 1.32 1 2 C3.02463255 2.65213292 3.02463255 2.65213292 5 3 C3.91861132 6.45382304 2.6920809 9.79436646 1.265625 13.1171875 C-6.01692534 30.18707979 -10.64686251 47.79755811 -13.0637207 66.20141602 C-13.54977294 69.80687206 -13.94584628 71.91876942 -16 75 C-16.77972033 49.58111731 -14.60082414 21.9012362 0 0 Z " fill="#8C2681" transform="translate(269,287)"/>
<path d="M0 0 C3.21801863 2.71743796 4.52551687 4.36264082 5.8125 8.375 C6.10352978 13.36660167 5.56432781 16.44967347 2.375 20.375 C-1.73759813 23.58483269 -5.0572024 23.92749359 -10.1875 23.375 C-13.85998378 21.74278499 -16.22976138 19.89892951 -18.1875 16.375 C-19.30078599 11.66494391 -19.41936987 8.70745329 -17.1875 4.375 C-16.5275 4.375 -15.8675 4.375 -15.1875 4.375 C-15.125625 3.75625 -15.06375 3.1375 -15 2.5 C-14.1875 0.375 -14.1875 0.375 -12 -0.875 C-7.26517637 -2.13761963 -4.43451968 -2.26073552 0 0 Z M-10.0625 5.3125 C-12.53314354 7.29918734 -12.53314354 7.29918734 -12.75 10.875 C-12.49929699 14.35405036 -12.49929699 14.35405036 -10.5 16.375 C-7.54461914 17.65300253 -6.19751617 17.45551862 -3.1875 16.375 C-1.1875 15.375 -1.1875 15.375 -0.1875 13.375 C-0.42227199 9.72958155 -0.42227199 9.72958155 -1.1875 6.375 C-4.64761373 4.84611254 -6.40030236 4.11830512 -10.0625 5.3125 Z " fill="#F4632D" transform="translate(406.1875,186.625)"/>
<path d="M0 0 C2.0625 0.4375 2.0625 0.4375 4 1 C4.02578125 1.81984375 4.0515625 2.6396875 4.078125 3.484375 C4.13484375 4.56203125 4.1915625 5.6396875 4.25 6.75 C4.29640625 7.81734375 4.3428125 8.8846875 4.390625 9.984375 C5.1145773 13.56701075 6.36353878 14.58280882 9 17 C9.3125 20.1875 9.3125 20.1875 9 23 C8.67 23.33 8.34 23.66 8 24 C7.75531943 27.33037447 7.61572995 30.65973714 7.4765625 33.99609375 C7.31929688 34.98738281 7.16203125 35.97867188 7 37 C4 39 4 39 0 39 C-1.44248362 9.5633595 -1.44248362 9.5633595 -1 1 C-0.67 0.67 -0.34 0.34 0 0 Z " fill="#6D6A6D" transform="translate(379,231)"/>
<path d="M0 0 C2.8100346 1.79363911 4.50940468 3.01880935 6 6 C6.6469176 10.7040151 6.63833677 13.99101607 4.0625 18.0625 C0.49436424 20.31989201 -1.68750996 20.72166614 -5.84375 20.5 C-9.29371778 19.70000747 -10.90927996 17.74407005 -13 15 C-14.55024464 11.89951072 -14.28992015 9.42105782 -14 6 C-10.26747896 0.27680107 -6.74763808 -0.96948823 0 0 Z M-7 5 C-7.66 5.66 -8.32 6.32 -9 7 C-8.67673447 10.59679066 -8.67673447 10.59679066 -8 14 C-3.92299075 15.12437693 -3.92299075 15.12437693 -0.0625 13.9375 C1.49954362 11.08906752 0.74921024 9.06495097 0 6 C-3.40320934 5.32326553 -3.40320934 5.32326553 -7 5 Z " fill="#F9911D" transform="translate(375,96)"/>
<path d="M0 0 C0.08701039 3.60401481 0.14039388 7.20776012 0.1875 10.8125 C0.22520508 12.34874023 0.22520508 12.34874023 0.26367188 13.91601562 C0.27817383 15.39038086 0.27817383 15.39038086 0.29296875 16.89453125 C0.31653442 18.25348511 0.31653442 18.25348511 0.34057617 19.63989258 C-0.06124927 22.42444206 -0.83688562 23.27599535 -3 25 C-3.99 24.67 -4.98 24.34 -6 24 C-6 23.34 -6 22.68 -6 22 C-6.928125 21.566875 -6.928125 21.566875 -7.875 21.125 C-10 20 -10 20 -12 18 C-12.30059943 15.63490639 -12.49515012 13.25558119 -12.625 10.875 C-12.69976562 9.59367188 -12.77453125 8.31234375 -12.8515625 6.9921875 C-12.90054687 6.00476563 -12.94953125 5.01734375 -13 4 C-11.39850114 3.32694982 -9.79368971 2.66177773 -8.1875 2 C-7.29417969 1.62875 -6.40085937 1.2575 -5.48046875 0.875 C-3 0 -3 0 0 0 Z " fill="#A76141" transform="translate(395,226)"/>
<path d="M0 0 C0.66 0 1.32 0 2 0 C1.60564015 1.33376989 1.20934067 2.66696613 0.8125 4 C0.40451172 5.37865234 0.40451172 5.37865234 -0.01171875 6.78515625 C-0.70913201 9.05381678 -1.44465199 11.31093192 -2.20703125 13.55859375 C-7.70595025 29.86637419 -9.50087995 46.01599511 -9.33618164 63.18139648 C-9.31235222 65.82891932 -9.31568621 68.47544189 -9.32226562 71.12304688 C-9.31669234 72.85938082 -9.30958466 74.59571067 -9.30078125 76.33203125 C-9.30169266 77.09699417 -9.30260406 77.86195709 -9.30354309 78.65010071 C-9.21106368 86.00873602 -8.06957071 92.51300505 -7 100 C-6.67 89.77 -6.34 79.54 -6 69 C-5.67 69 -5.34 69 -5 69 C-4.67 83.52 -4.34 98.04 -4 113 C-13.38239307 103.61760693 -12.2837549 81.4237609 -12.3293457 68.46875 C-12.32550613 67.04166078 -12.31985876 65.61457541 -12.3125 64.1875 C-12.31067719 63.44709473 -12.30885437 62.70668945 -12.30697632 61.94384766 C-12.25936112 50.41693797 -11.71662119 39.240924 -9 28 C-8.81244141 27.22253418 -8.62488281 26.44506836 -8.43164062 25.64404297 C-6.25005254 16.86297442 -3.71896747 8.26898913 0 0 Z " fill="#8E337D" transform="translate(250,250)"/>
<path d="M0 0 C0 6.6 0 13.2 0 20 C-8.49794239 18.78600823 -8.49794239 18.78600823 -12 15 C-13.62454112 12.10161234 -15.05169785 9.18974361 -16 6 C-15 4 -15 4 -12.3828125 2.9296875 C-11.30773437 2.58164063 -10.23265625 2.23359375 -9.125 1.875 C-8.05507813 1.52179688 -6.98515625 1.16859375 -5.8828125 0.8046875 C-3 0 -3 0 0 0 Z " fill="#D05E25" transform="translate(425,253)"/>
<path d="M0 0 C0.66 0 1.32 0 2 0 C0.04082604 6.04405166 -2.20064341 11.97707963 -4.43359375 17.92382812 C-6.16391557 22.57638873 -7.70961021 27.20620191 -9 32 C-8.34 32 -7.68 32 -7 32 C-6.67 30.35 -6.34 28.7 -6 27 C-5.67 27 -5.34 27 -5 27 C-5.75190622 34.43551702 -7.32617466 41.64596301 -8.9375 48.9375 C-9.33485352 50.80245117 -9.33485352 50.80245117 -9.74023438 52.70507812 C-9.99998047 53.88392578 -10.25972656 55.06277344 -10.52734375 56.27734375 C-10.76187256 57.35234131 -10.99640137 58.42733887 -11.23803711 59.53491211 C-11.48948486 60.34839111 -11.74093262 61.16187012 -12 62 C-12.99 62.495 -12.99 62.495 -14 63 C-14.46982327 40.73559731 -9.56097181 20.17297243 0 0 Z " fill="#D92F6E" transform="translate(226,210)"/>
<path d="M0 0 C4.95 0 9.9 0 15 0 C15.25 7.625 15.25 7.625 13 11 C10.65234375 11.4765625 10.65234375 11.4765625 7.9375 11.625 C4.6617361 11.56041737 4.6617361 11.56041737 2 13 C2.03222848 15.03039402 2.06811619 17.06128092 2.16015625 19.08984375 C2 21 2 21 0 23 C0 15.41 0 7.82 0 0 Z " fill="#328284" transform="translate(352,234)"/>
<path d="M0 0 C1.65 0 3.3 0 5 0 C5.94137255 2.82411765 6.11725382 4.52918032 6.09765625 7.44921875 C6.09443359 8.29677734 6.09121094 9.14433594 6.08789062 10.01757812 C6.07951172 10.89865234 6.07113281 11.77972656 6.0625 12.6875 C6.05798828 13.58017578 6.05347656 14.47285156 6.04882812 15.39257812 C6.03705004 17.59508073 6.01911481 19.79754885 6 22 C1.71 22 -2.58 22 -7 22 C-5.68 20.35 -4.36 18.7 -3 17 C-0.97933652 12.55454035 -0.84009729 8.74012138 -1.02734375 3.953125 C-1 2 -1 2 0 0 Z " fill="#866C3E" transform="translate(361,211)"/>
<path d="M0 0 C2 1 2 1 2.95703125 3.21875 C3 6 3 6 0.82421875 8.65625 C-0.20940217 9.61718523 -1.25593026 10.56435631 -2.3125 11.5 C-7.39103623 16.24718034 -11.7012576 21.19072047 -15.78833008 26.81054688 C-17.74075195 29.47275244 -19.21041532 31.14027688 -22 33 C-20.64741097 28.35354129 -18.69143212 24.46780265 -16.0625 20.4375 C-15.67715088 19.84050293 -15.29180176 19.24350586 -14.89477539 18.62841797 C-10.4804216 11.96091355 -5.3037933 5.96800667 0 0 Z " fill="#713D91" transform="translate(300,277)"/>
<path d="M0 0 C1.97956441 0.14033111 3.95865141 0.2874123 5.9375 0.4375 C7.03964844 0.51871094 8.14179688 0.59992188 9.27734375 0.68359375 C12 1 12 1 13 2 C13.14115161 4.67058851 13.04247107 7.32432238 13 10 C9.67465243 11.10844919 7.37817425 10.84454356 4 10 C3.67 10.99 3.34 11.98 3 13 C0.9375 13.6875 0.9375 13.6875 -1 14 C-1.02736707 12.60427948 -1.04655989 11.20839779 -1.0625 9.8125 C-1.07410156 9.03519531 -1.08570313 8.25789063 -1.09765625 7.45703125 C-0.99518573 4.87887289 -0.56697553 2.51344269 0 0 Z " fill="#406479" transform="translate(353,252)"/>
<path d="M0 0 C3.03942232 1.73681276 4.44710265 2.8942053 6 6 C6 8.81870287 4.81990733 9.91047677 3 12 C2.01 13.485 2.01 13.485 1 15 C0.34 12.69 -0.32 10.38 -1 8 C-5.89895217 6.81503452 -5.89895217 6.81503452 -10.4375 8.4375 C-10.953125 8.953125 -11.46875 9.46875 -12 10 C-11.67 8.68 -11.34 7.36 -11 6 C-13.16874252 6.50603992 -14.99967627 6.99983813 -17 8 C-13.88887286 0.08076728 -7.78495663 -1.278318 0 0 Z " fill="#F99021" transform="translate(417,109)"/>
<path d="M0 0 C2.91243389 1.45621695 3.05596546 3.32413433 4.1640625 6.34765625 C4.56367188 7.42724609 4.96328125 8.50683594 5.375 9.61914062 C5.99375 11.32360352 5.99375 11.32360352 6.625 13.0625 C7.25535156 14.77276367 7.25535156 14.77276367 7.8984375 16.51757812 C8.93867815 19.34277717 9.97220732 22.17025365 11 25 C12.32 22.36 13.64 19.72 15 17 C16.32 17 17.64 17 19 17 C18.41892368 20.7602985 17.34800504 23.53035032 15.4375 26.8125 C14.98246094 27.60269531 14.52742188 28.39289063 14.05859375 29.20703125 C13.70925781 29.79871094 13.35992187 30.39039063 13 31 C9.38501039 26.6997043 6.39089513 22.10043997 3.375 17.375 C2.40375798 15.86190717 1.43240813 14.34888356 0.4609375 12.8359375 C0.03603027 12.17126465 -0.38887695 11.5065918 -0.82666016 10.82177734 C-1.86851471 9.20414965 -2.93269855 7.60095218 -4 6 C-3.67 5.01 -3.34 4.02 -3 3 C-3 3.66 -3 4.32 -3 5 C-2.34 5 -1.68 5 -1 5 C0.32 7.64 1.64 10.28 3 13 C2.1395861 8.66770285 2.1395861 8.66770285 0 5 C-0.04063832 3.33382885 -0.042721 1.66611905 0 0 Z " fill="#2E5285" transform="translate(238,366)"/>
<path d="M0 0 C4.26616423 3.70482683 6.08181972 6.39910027 7 12 C6.86215598 15.36733253 6.49614453 18.66778604 6 22 C5.67 22 5.34 22 5 22 C4.67 18.04 4.34 14.08 4 10 C0.69549408 12.68311121 0.69549408 12.68311121 0.625 16.25 C-0.17748135 21.06488811 -1.988056 23.21576267 -5 27 C-5.33 26.34 -5.66 25.68 -6 25 C-5.525625 23.989375 -5.05125 22.97875 -4.5625 21.9375 C-2.62831452 17.69648781 -2.34527413 13.60008699 -3 9 C-3.95095102 6.78887283 -3.95095102 6.78887283 -5 5 C-3.35 3.35 -1.7 1.7 0 0 Z " fill="#9B51AD" transform="translate(206,135)"/>
<path d="M0 0 C2.64 0 5.28 0 8 0 C7.91321237 2.29239061 7.80504727 4.5839807 7.6875 6.875 C7.62949219 8.15117187 7.57148438 9.42734375 7.51171875 10.7421875 C7.34285156 11.81726563 7.17398437 12.89234375 7 14 C4 16 4 16 0 16 C0 10.72 0 5.44 0 0 Z " fill="#646960" transform="translate(379,254)"/>
<path d="M0 0 C1.58431415 2.86160643 2.34986567 5.27599716 2.78125 8.51171875 C2.90113281 9.35154297 3.02101562 10.19136719 3.14453125 11.05664062 C3.3830655 12.82205621 3.6200247 14.58768526 3.85546875 16.35351562 C3.97535156 17.18947266 4.09523437 18.02542969 4.21875 18.88671875 C4.32123047 19.65201904 4.42371094 20.41731934 4.52929688 21.20581055 C4.68462891 21.79789307 4.83996094 22.38997559 5 23 C5.66 23.33 6.32 23.66 7 24 C7 25.65 7 27.3 7 29 C7.66 29 8.32 29 9 29 C9.99 34.28 10.98 39.56 12 45 C11.34 45 10.68 45 10 45 C5.95388762 36.3413195 3.31678356 27.96850037 1.625 18.5625 C1.37411621 17.17877197 1.37411621 17.17877197 1.11816406 15.76708984 C0.22203084 10.43750614 -0.16427794 5.40221694 0 0 Z " fill="#CF2F87" transform="translate(197,258)"/>
<path d="M0 0 C0 6.6 0 13.2 0 20 C-0.33 20 -0.66 20 -1 20 C-1.33 14.06 -1.66 8.12 -2 2 C-5.75170424 3.65077902 -5.75170424 3.65077902 -9 6 C-9.66476796 11.5840509 -7.91814355 14.44040071 -5 19 C-8.85852918 17.42800663 -11.32218131 15.17110109 -14 12 C-14.94625811 9.66104406 -15.46459888 7.48231428 -16 5 C-14.3962669 4.35309078 -12.79199694 3.70751236 -11.1875 3.0625 C-9.84751953 2.52302734 -9.84751953 2.52302734 -8.48046875 1.97265625 C-5.46847959 0.79157704 -3.26236464 0 0 0 Z " fill="#AE6B40" transform="translate(425,253)"/>
<path d="M0 0 C0.33 0.66 0.66 1.32 1 2 C-0.1818826 4.72191145 -1.4228138 7.35015532 -2.75 10 C-5.45585201 15.55160158 -7.89520878 20.91363436 -9.4296875 26.921875 C-10 29 -10 29 -10.9765625 31.16015625 C-12.73525531 36.04019317 -13.16221781 41.19125247 -13.85546875 46.31445312 C-14.03529297 47.55678711 -14.03529297 47.55678711 -14.21875 48.82421875 C-14.3724707 49.95476685 -14.3724707 49.95476685 -14.52929688 51.1081543 C-15 53 -15 53 -17 55 C-17.17538832 49.07052554 -16.62029145 43.73052646 -15.375 37.9375 C-15.19751221 37.11040527 -15.02002441 36.28331055 -14.8371582 35.43115234 C-11.9440128 22.67774517 -6.44887887 11.31415731 0 0 Z " fill="#B23677" transform="translate(237,220)"/>
<path d="M0 0 C-0.33 0.99 -0.66 1.98 -1 3 C-1.2311483 6.32168665 -1.38108241 9.64213627 -1.5234375 12.96875 C-2.04661359 16.29649299 -2.52867755 16.90607162 -5 19 C-5.66 20.32 -6.32 21.64 -7 23 C-7 16.07 -7 9.14 -7 2 C-2 0 -2 0 0 0 Z " fill="#60765F" transform="translate(359,209)"/>
<path d="M0 0 C0.33 0.66 0.66 1.32 1 2 C3.02463255 2.65213292 3.02463255 2.65213292 5 3 C3.40109514 8.19644079 1.25861997 13.06612142 -1 18 C-1.66 16.68 -2.32 15.36 -3 14 C-3.99 14 -4.98 14 -6 14 C-4.45941767 8.98491285 -2.97068161 4.3852919 0 0 Z " fill="#C0306E" transform="translate(269,287)"/>
<path d="M0 0 C0.33 0.66 0.66 1.32 1 2 C-2.41176471 8.70588235 -2.41176471 8.70588235 -5 10 C-5.70710678 11.64991582 -6.36562656 13.3207762 -7 15 C-7.804375 16.5159375 -7.804375 16.5159375 -8.625 18.0625 C-10.28262674 21.0632297 -10.28262674 21.0632297 -10 25 C-11.96875 27.796875 -11.96875 27.796875 -14.5 30.75 C-15.3353125 31.73484375 -16.170625 32.7196875 -17.03125 33.734375 C-18.00578125 34.85585938 -18.00578125 34.85585938 -19 36 C-19.66 35.67 -20.32 35.34 -21 35 C-14.56134853 22.91136721 -7.8458403 11.23265639 0 0 Z " fill="#2C3E83" transform="translate(272,376)"/>
<path d="M0 0 C0 3.96130371 -1.34877125 4.82914401 -4 7.6875 C-4.7425 8.49574219 -5.485 9.30398438 -6.25 10.13671875 C-6.8275 10.75160156 -7.405 11.36648438 -8 12 C-7.34 12.66 -6.68 13.32 -6 14 C-10.29 17.96 -14.58 21.92 -19 26 C-19.66 25.67 -20.32 25.34 -21 25 C-14.60360693 16.03535819 -7.59281768 7.96539249 0 0 Z " fill="#384B8A" transform="translate(276,397)"/>
<path d="M0 0 C3.9252025 3.70090521 6.94580156 7.54959656 10 12 C9.01 12.495 9.01 12.495 8 13 C7.01 14.485 7.01 14.485 6 16 C5.67 15.01 5.34 14.02 5 13 C2.98213171 11.16130817 0.86116211 9.50252981 -1.28515625 7.81640625 C-3 6 -3 6 -3 2 C-2.01 2 -1.02 2 0 2 C0 1.34 0 0.68 0 0 Z " fill="#F1AC28" transform="translate(384,175)"/>
<path d="M0 0 C3.3 0 6.6 0 10 0 C10 11.22 10 22.44 10 34 C6.36846191 30.36846191 7.10954177 24.92440044 7 20 C7.15584102 13.65778138 7.56971113 7.32855624 8 1 C5.36 1 2.72 1 0 1 C0 0.67 0 0.34 0 0 Z " fill="#48B7EB" transform="translate(135,233)"/>
<path d="M0 0 C2 1 2 1 2.86328125 3.29296875 C3 6 3 6 1.41796875 8.23828125 C0.68191406 8.92277344 -0.05414063 9.60726563 -0.8125 10.3125 C-1.54082031 11.00988281 -2.26914062 11.70726562 -3.01953125 12.42578125 C-5 14 -5 14 -7 14 C-7.74609375 11.80078125 -7.74609375 11.80078125 -8 9 C-6.34765625 6.54296875 -6.34765625 6.54296875 -4.0625 4.1875 C-3.31097656 3.39730469 -2.55945313 2.60710937 -1.78515625 1.79296875 C-1.19605469 1.20128906 -0.60695313 0.60960937 0 0 Z " fill="#A6445C" transform="translate(300,277)"/>
<path d="M0 0 C0.33 0 0.66 0 1 0 C1.12375 0.969375 1.2475 1.93875 1.375 2.9375 C1.684375 4.4534375 1.684375 4.4534375 2 6 C2.66 6.33 3.32 6.66 4 7 C2.699101 18.92490746 2.699101 18.92490746 1 24 C0.34 24.33 -0.32 24.66 -1 25 C-1.02727345 22.33326258 -1.04696948 19.66681131 -1.0625 17 C-1.07087891 16.25621094 -1.07925781 15.51242187 -1.08789062 14.74609375 C-1.10966272 9.73851156 -0.71541549 4.95720968 0 0 Z " fill="#A5317C" transform="translate(213,248)"/>
<path d="M0 0 C3 2 3 2 3.77734375 5.59375 C4.18217873 10.08244667 3.51500292 14.12253979 2.5625 18.5 C2.41490234 19.22703125 2.26730469 19.9540625 2.11523438 20.703125 C1.75466735 22.47106653 1.37893793 24.2359048 1 26 C0.67 26 0.34 26 0 26 C0 17.42 0 8.84 0 0 Z " fill="#892F93" transform="translate(253,336)"/>
<path d="M0 0 C0.66 0.33 1.32 0.66 2 1 C2 4 2 4 0.90625 5.39453125 C-1.7814056 7.65811004 -4.61750899 9.68381723 -7.5 11.6875 C-8.08136719 12.10322266 -8.66273438 12.51894531 -9.26171875 12.94726562 C-13.64281866 16 -13.64281866 16 -17 16 C-11.53105379 10.41711741 -5.96348734 5.05352742 0 0 Z " fill="#445B8E" transform="translate(278,413)"/>
<path d="M0 0 C1.65 1.65 3.3 3.3 5 5 C4.3125 6.9375 4.3125 6.9375 3 9 C0.375 9.75 0.375 9.75 -2 10 C-2.99 8.35 -3.98 6.7 -5 5 C-3.35 3.35 -1.7 1.7 0 0 Z " fill="#7A70CA" transform="translate(206,135)"/>
<path d="M0 0 C1.98 0 3.96 0 6 0 C5.34878174 0.30993896 4.69756348 0.61987793 4.02661133 0.93920898 C1.28052928 3.73160491 1.53517345 5.58432851 1.52116394 9.38722229 C1.53867203 10.2404155 1.55618011 11.0936087 1.57421875 11.97265625 C1.57750687 12.85150986 1.58079498 13.73036346 1.58418274 14.635849 C1.59460342 16.49274097 1.61455317 18.34960031 1.64331055 20.20629883 C1.68738445 23.0550313 1.70474451 25.90292194 1.71679688 28.75195312 C1.73022085 30.55469971 1.74514379 32.35743588 1.76171875 34.16015625 C1.76910568 35.01537369 1.77649261 35.87059113 1.78410339 36.75172424 C1.73721174 41.01138785 1.73721174 41.01138785 3 45 C2.01 44.67 1.02 44.34 0 44 C0 29.48 0 14.96 0 0 Z " fill="#3EB5EF" transform="translate(128,232)"/>
<path d="M0 0 C4.82829428 1.48700714 7.7487769 4.21283256 11.3125 7.625 C12.13717773 8.3984375 12.13717773 8.3984375 12.97851562 9.1875 C14.32498054 10.45200618 15.66332535 11.72514922 17 13 C13.06199783 13 10.7197624 11.22573096 7.5 9.1875 C6.91863281 8.83107422 6.33726562 8.47464844 5.73828125 8.10742188 C2.8566578 6.31052854 0.256107 4.55423542 -2 2 C-1.01 2 -0.02 2 1 2 C0.67 1.34 0.34 0.68 0 0 Z " fill="#3F5681" transform="translate(224,415)"/>
<path d="M0 0 C0.33 0 0.66 0 1 0 C1.33 6.27 1.66 12.54 2 19 C1.01 19 0.02 19 -1 19 C-2.96818336 13.17745757 -4.40214229 8.16618181 -4 2 C-3.67 2 -3.34 2 -3 2 C-2.34 4.97 -1.68 7.94 -1 11 C-0.67 7.37 -0.34 3.74 0 0 Z " fill="#84358A" transform="translate(227,310)"/>
<path d="M0 0 C0.66 0 1.32 0 2 0 C2.125 2.375 2.125 2.375 2 5 C1.34 5.66 0.68 6.32 0 7 C0.33 7.66 0.66 8.32 1 9 C3.12576782 9.46651207 3.12576782 9.46651207 5.5625 9.625 C6.38878906 9.69976562 7.21507812 9.77453125 8.06640625 9.8515625 C8.70449219 9.90054688 9.34257812 9.94953125 10 10 C10 10.33 10 10.66 10 11 C5.05 11 0.1 11 -5 11 C-2.6440678 2.75423729 -2.6440678 2.75423729 0 0 Z " fill="#746C53" transform="translate(357,223)"/>
<path d="M0 0 C2.25 4.5 2.25 4.5 2.1953125 8.109375 C2.18886719 8.86347656 2.18242188 9.61757812 2.17578125 10.39453125 C2.15902344 11.17183594 2.14226562 11.94914063 2.125 12.75 C2.11597656 13.54277344 2.10695313 14.33554688 2.09765625 15.15234375 C2.07417012 17.10169281 2.03830137 19.05088575 2 21 C3.32 21.66 4.64 22.32 6 23 C4.35 23 2.7 23 1 23 C1 25.97 1 28.94 1 32 C0.67 32 0.34 32 0 32 C0 21.44 0 10.88 0 0 Z " fill="#23A2E8" transform="translate(101,228)"/>
<path d="M0 0 C0.17835515 4.54805635 -0.00214565 7.8794254 -2 12 C-2.99 11.67 -3.98 11.34 -5 11 C-5.08096803 9.54257537 -5.13917774 8.08387193 -5.1875 6.625 C-5.22230469 5.81289062 -5.25710937 5.00078125 -5.29296875 4.1640625 C-5.19628906 3.44992188 -5.09960938 2.73578125 -5 2 C-2 0 -2 0 0 0 Z " fill="#C82268" transform="translate(219,243)"/>
<path d="M0 0 C1.32 0 2.64 0 4 0 C3.41892368 3.7602985 2.34800504 6.53035032 0.4375 9.8125 C-0.01753906 10.60269531 -0.47257813 11.39289063 -0.94140625 12.20703125 C-1.29074219 12.79871094 -1.64007813 13.39039063 -2 14 C-2.33 14 -2.66 14 -3 14 C-3.34615998 8.34605369 -2.43425238 4.96993194 0 0 Z " fill="#224289" transform="translate(253,383)"/>
<path d="M0 0 C0.66 0 1.32 0 2 0 C3.19733988 2.11997834 4.38298713 4.24513676 5.5625 6.375 C5.90474609 6.97828125 6.24699219 7.5815625 6.59960938 8.203125 C7.46127095 9.76978241 8.23718183 11.38290862 9 13 C8.67 13.66 8.34 14.32 8 15 C6.64869276 13.64266013 5.3195282 12.26325362 4 10.875 C3.2575 10.10929687 2.515 9.34359375 1.75 8.5546875 C-0.36623402 5.46536373 -0.34025361 3.66835926 0 0 Z " fill="#2D467B" transform="translate(238,394)"/>
<path d="M0 0 C0.33 0 0.66 0 1 0 C1 4.29 1 8.58 1 13 C-0.03125 12.814375 -1.0625 12.62875 -2.125 12.4375 C-5.76148442 12.02692918 -8.45437009 12.221691 -12 13 C-9.55319149 9.20744681 -9.55319149 9.20744681 -7 8.25 C-4.98580805 7.99822601 -3.0291611 8 -1 8 C-0.67 5.36 -0.34 2.72 0 0 Z " fill="#56535D" transform="translate(366,253)"/>
<path d="M0 0 C0.99 0 1.98 0 3 0 C4.49498913 2.98997825 4.11577446 5.70042775 4 9 C3.67 9.99 3.34 10.98 3 12 C2.01 12 1.02 12 0 12 C0 8.04 0 4.08 0 0 Z " fill="#4A6C6C" transform="translate(379,257)"/>
<path d="M0 0 C0.66 0 1.32 0 2 0 C3.50156874 3.00313748 3.09281204 5.79067522 3.0625 9.125 C3.05347656 10.40632812 3.04445313 11.68765625 3.03515625 13.0078125 C3.02355469 13.99523437 3.01195312 14.98265625 3 16 C2.01 15.67 1.02 15.34 0 15 C0 10.05 0 5.1 0 0 Z " fill="#6E8696" transform="translate(378,232)"/>
<path d="M0 0 C4.87072783 4.56630734 8.89156398 9.74976539 13 15 C12.67 15.66 12.34 16.32 12 17 C11.52949219 16.51789063 11.05898437 16.03578125 10.57421875 15.5390625 C9.95160156 14.90742188 9.32898438 14.27578125 8.6875 13.625 C8.07261719 12.99851562 7.45773438 12.37203125 6.82421875 11.7265625 C4.91187472 9.81913393 4.91187472 9.81913393 2 8 C1.375 5.5625 1.375 5.5625 1 3 C0.67 2.01 0.34 1.02 0 0 Z " fill="#2F487A" transform="translate(233,406)"/>
<path d="M0 0 C0.99 1.32 1.98 2.64 3 4 C1.35 6.31 -0.3 8.62 -2 11 C-2.99 10.34 -3.98 9.68 -5 9 C-3.7508258 5.54074837 -2.32472205 2.85306797 0 0 Z " fill="#864583" transform="translate(291,287)"/>
<path d="M0 0 C0.144375 0.598125 0.28875 1.19625 0.4375 1.8125 C0.8872439 3.56150404 1.42892341 5.28677023 2 7 C0.5625 9.1875 0.5625 9.1875 -1 11 C-1.99 10.67 -2.98 10.34 -4 10 C-3.43454163 6.04179141 -2.19097652 3.3340947 0 0 Z " fill="#E62B58" transform="translate(270,254)"/>
<path d="M0 0 C0.66 0 1.32 0 2 0 C2.86355778 1.95421035 3.71559934 3.91351347 4.5625 5.875 C5.03816406 6.96554687 5.51382813 8.05609375 6.00390625 9.1796875 C6.33261719 10.11039062 6.66132813 11.04109375 7 12 C6.67 12.66 6.34 13.32 6 14 C3.36138548 10.81546523 0.8167672 7.72915372 -1 4 C-0.6875 1.6875 -0.6875 1.6875 0 0 Z " fill="#2A5289" transform="translate(243,380)"/>
<path d="M0 0 C0.33 0 0.66 0 1 0 C1.99 5.28 2.98 10.56 4 16 C3.34 16 2.68 16 2 16 C1.3291288 14.3767313 0.66342971 12.75132422 0 11.125 C-0.37125 10.22007812 -0.7425 9.31515625 -1.125 8.3828125 C-2 6 -2 6 -2 4 C-1.34 4 -0.68 4 0 4 C0 2.68 0 1.36 0 0 Z " fill="#D4419A" transform="translate(205,287)"/>
<path d="M0 0 C0.99 0.33 1.98 0.66 3 1 C3.91276631 3.25325403 4.45781522 5.51709989 5.05859375 7.87109375 C5.83500562 10.17230422 5.83500562 10.17230422 8.09765625 11.28515625 C8.72542969 11.52105469 9.35320312 11.75695312 10 12 C9.01 12.495 9.01 12.495 8 13 C5.48355979 12.12320882 4.25380979 11.36896423 2.734375 9.16015625 C2.24710937 8.12181641 2.24710937 8.12181641 1.75 7.0625 C1.41484375 6.37285156 1.0796875 5.68320312 0.734375 4.97265625 C0 3 0 3 0 0 Z " fill="#807168" transform="translate(407,258)"/>
<path d="M0 0 C0.33 0 0.66 0 1 0 C1 2.31 1 4.62 1 7 C-0.65614657 7.38218767 -2.32457024 7.71395102 -4 8 C-5 7 -5 7 -5.0625 4.4375 C-5.041875 3.633125 -5.02125 2.82875 -5 2 C-4.360625 1.855625 -3.72125 1.71125 -3.0625 1.5625 C-1.02454854 1.18992819 -1.02454854 1.18992819 0 0 Z " fill="#B85032" transform="translate(394,248)"/>
<path d="M0 0 C0.66 0.33 1.32 0.66 2 1 C2.625 3.5625 2.625 3.5625 3 6 C1.68 6.99 0.36 7.98 -1 9 C-1.99 8.01 -2.98 7.02 -4 6 C-2.84826645 3.53199953 -1.95216435 1.95216435 0 0 Z " fill="#C2514B" transform="translate(300,277)"/>
<path d="M0 0 C0.33 0.99 0.66 1.98 1 3 C-2.63 6.63 -6.26 10.26 -10 14 C-10.66 13.67 -11.32 13.34 -12 13 C-8.04 8.71 -4.08 4.42 0 0 Z " fill="#E63F75" transform="translate(237,153)"/>
<path d="M0 0 C1.56779517 2.95074112 2.70074575 5.87119234 3.6875 9.0625 C3.95949219 9.91972656 4.23148438 10.77695312 4.51171875 11.66015625 C5 14 5 14 4 17 C-1.5321244 7.48627741 -1.5321244 7.48627741 -0.8125 2.875 C-0.544375 1.92625 -0.27625 0.9775 0 0 Z " fill="#CF3C9C" transform="translate(187,270)"/>
<path d="M0 0 C0 6.6 0 13.2 0 20 C-0.33 20 -0.66 20 -1 20 C-1.33 14.06 -1.66 8.12 -2 2 C-3.98 2.99 -3.98 2.99 -6 4 C-6.99 3.34 -7.98 2.68 -9 2 C-3.375 0 -3.375 0 0 0 Z " fill="#D87847" transform="translate(425,253)"/>
<path d="M0 0 C0.33 0 0.66 0 1 0 C1 1.65 1 3.3 1 5 C0.24074219 5.04898438 -0.51851563 5.09796875 -1.30078125 5.1484375 C-2.79158203 5.26058594 -2.79158203 5.26058594 -4.3125 5.375 C-5.79169922 5.47941406 -5.79169922 5.47941406 -7.30078125 5.5859375 C-10.21528433 5.83865472 -10.21528433 5.83865472 -13 8 C-12.67 6.68 -12.34 5.36 -12 4 C-9.24994505 3.43381222 -6.53456853 2.93734576 -3.75 2.5625 C-2.8425 2.376875 -1.935 2.19125 -1 2 C-0.67 1.34 -0.34 0.68 0 0 Z " fill="#477277" transform="translate(366,242)"/>
<path d="M0 0 C0 2.64 0 5.28 0 8 C-0.33 7.01 -0.66 6.02 -1 5 C-3.31 5 -5.62 5 -8 5 C-7.67 4.01 -7.34 3.02 -7 2 C-4.56723614 0.81480735 -2.71982714 0 0 0 Z " fill="#7B7B53" transform="translate(367,206)"/>
<path d="M0 0 C0.66 0.33 1.32 0.66 2 1 C2 4 2 4 0.8125 5.625 C-1.41406801 7.31412056 -3.25851328 7.62952882 -6 8 C-4.55746343 4.63408134 -2.66735273 2.48952921 0 0 Z " fill="#2B3E78" transform="translate(278,413)"/>
<path d="M0 0 C0 4.13781054 -1.71509607 5.20919996 -4.5 8.1875 C-5.3353125 9.08855469 -6.170625 9.98960937 -7.03125 10.91796875 C-7.6809375 11.60503906 -8.330625 12.29210937 -9 13 C-9.66 12.67 -10.32 12.34 -11 12 C-7.37 8.04 -3.74 4.08 0 0 Z " fill="#343D7C" transform="translate(276,397)"/>
<path d="M0 0 C2.64 0 5.28 0 8 0 C7.67 1.98 7.34 3.96 7 6 C6.34 5.34 5.68 4.68 5 4 C2.42938689 3.35232207 2.42938689 3.35232207 0 3 C0 2.01 0 1.02 0 0 Z " fill="#7E654A" transform="translate(379,254)"/>
<path d="M0 0 C0.66 0.33 1.32 0.66 2 1 C0.68 1.33 -0.64 1.66 -2 2 C-2.33 6.62 -2.66 11.24 -3 16 C-3.33 16 -3.66 16 -4 16 C-4.33 11.38 -4.66 6.76 -5 2 C-3.35 1.34 -1.7 0.68 0 0 Z " fill="#A17356" transform="translate(387,228)"/>
<path d="M0 0 C0.33 0 0.66 0 1 0 C2.72107623 8.4690583 2.72107623 8.4690583 0.953125 12.22265625 C-0.4375 14.125 -0.4375 14.125 -3 17 C-3.33 16.34 -3.66 15.68 -4 15 C-3.26740357 13.33500811 -2.5311519 11.67144818 -1.76953125 10.01953125 C-0.51617568 6.73026814 -0.3065511 3.49468254 0 0 Z " fill="#B55BAE" transform="translate(204,145)"/>
<path d="M0 0 C1.98 0 3.96 0 6 0 C6 0.99 6 1.98 6 3 C1.71 3 -2.58 3 -7 3 C-7 2.67 -7 2.34 -7 2 C-4.69 2 -2.38 2 0 2 C0 1.34 0 0.68 0 0 Z " fill="#9B6240" transform="translate(361,230)"/>
<path d="M0 0 C0.33 0 0.66 0 1 0 C1.33 2.31 1.66 4.62 2 7 C2.99 7.33 3.98 7.66 5 8 C4.01 8.99 3.02 9.98 2 11 C-1.07692308 5.70769231 -1.07692308 5.70769231 -0.6875 2.125 C-0.460625 1.42375 -0.23375 0.7225 0 0 Z " fill="#F0633B" transform="translate(388,195)"/>
<path d="M0 0 C1.32 0.33 2.64 0.66 4 1 C4 2.98 4 4.96 4 7 C3.01 7.495 3.01 7.495 2 8 C0 6 0 6 -0.125 2.875 C-0.08375 1.92625 -0.0425 0.9775 0 0 Z " fill="#7D2686" transform="translate(254,333)"/>
<path d="M0 0 C0.33 0.99 0.66 1.98 1 3 C-0.40445835 5.2636564 -2.1967913 7.0208685 -4 9 C-4.66 8.67 -5.32 8.34 -6 8 C-2.25 1.125 -2.25 1.125 0 0 Z " fill="#344E8D" transform="translate(257,403)"/>
<path d="M0 0 C0.33 0 0.66 0 1 0 C1 2.64 1 5.28 1 8 C0.01 8.495 0.01 8.495 -1 9 C-1.66 6.69 -2.32 4.38 -3 2 C-2.01 2 -1.02 2 0 2 C0 1.34 0 0.68 0 0 Z " fill="#C8298E" transform="translate(186,266)"/>
<path d="M0 0 C1.32 0.33 2.64 0.66 4 1 C3.01 2.485 3.01 2.485 2 4 C1.54227937 6.73872955 1.54227937 6.73872955 1.375 9.6875 C1.30023438 10.68136719 1.22546875 11.67523438 1.1484375 12.69921875 C1.09945313 13.45847656 1.05046875 14.21773437 1 15 C0.67 15 0.34 15 0 15 C0 10.05 0 5.1 0 0 Z " fill="#4E7866" transform="translate(352,211)"/>
<path d="M0 0 C0.33 0.66 0.66 1.32 1 2 C1.66 2 2.32 2 3 2 C2.40072174 5.35595828 1.15377564 7.37801226 -1 10 C-1.125 3.375 -1.125 3.375 0 0 Z " fill="#2C488B" transform="translate(251,387)"/>
<path d="M0 0 C2.64752004 2.57784846 4.94432065 4.91648098 7 8 C4.50638429 6.79618552 2.31856917 5.54571278 0 4 C-0.99 3.67 -1.98 3.34 -3 3 C-2.01 2.01 -1.02 1.02 0 0 Z " fill="#50558E" transform="translate(320,285)"/>
<path d="M0 0 C0.66 0 1.32 0 2 0 C2.33 2.97 2.66 5.94 3 9 C2.01 8.67 1.02 8.34 0 8 C0 5.36 0 2.72 0 0 Z " fill="#C91179" transform="translate(202,282)"/>
<path d="M0 0 C2.60608273 2.5162178 4.89381685 5.05134359 7 8 C6.67 8.66 6.34 9.32 6 10 C3.69 7.69 1.38 5.38 -1 3 C-0.67 2.01 -0.34 1.02 0 0 Z " fill="#4D608D" transform="translate(239,413)"/>
<path d="M0 0 C2 1 2 1 2.8515625 3.28515625 C3.10679687 4.20167969 3.36203125 5.11820312 3.625 6.0625 C3.88539063 6.98160156 4.14578125 7.90070313 4.4140625 8.84765625 C4.60742188 9.55792969 4.80078125 10.26820313 5 11 C4.34 11 3.68 11 3 11 C0.84694043 7.14243493 -0.39253254 4.44870215 0 0 Z " fill="#284B7F" transform="translate(238,366)"/>
<path d="M0 0 C0.33 0 0.66 0 1 0 C1.3125 2.75 1.3125 2.75 1 6 C-1.5 8.375 -1.5 8.375 -4 10 C-2.8905928 6.51329166 -1.73662334 3.22515763 0 0 Z " fill="#664AA9" transform="translate(282,300)"/>
<path d="M0 0 C2.475 0.99 2.475 0.99 5 2 C4.34 3.32 3.68 4.64 3 6 C1.35 5.01 -0.3 4.02 -2 3 C-1.01 2.67 -0.02 2.34 1 2 C0.67 1.34 0.34 0.68 0 0 Z " fill="#294370" transform="translate(224,415)"/>
<path d="M0 0 C-1.33333333 2.66666667 -2.66666667 5.33333333 -4 8 C-4.66 6.68 -5.32 5.36 -6 4 C-2.25 0 -2.25 0 0 0 Z " fill="#764271" transform="translate(327,281)"/>
<path d="M0 0 C-0.6875 1.9375 -0.6875 1.9375 -2 4 C-4.625 4.75 -4.625 4.75 -7 5 C-7 4.34 -7 3.68 -7 3 C-2.61538462 0 -2.61538462 0 0 0 Z " fill="#8660BE" transform="translate(211,140)"/>
<path d="M0 0 C0.66 0 1.32 0 2 0 C2 2.31 2 4.62 2 7 C1.34 7 0.68 7 0 7 C-0.66 5.35 -1.32 3.7 -2 2 C-1.34 1.34 -0.68 0.68 0 0 Z " fill="#D11960" transform="translate(217,243)"/>
<path d="M0 0 C0.66 0 1.32 0 2 0 C2.66 1.65 3.32 3.3 4 5 C2.68 5.33 1.36 5.66 0 6 C0 4.02 0 2.04 0 0 Z " fill="#1D4178" transform="translate(238,394)"/>
<path d="M0 0 C1.99097846 2.98646769 2.94124926 5.59687262 4 9 C1.4375 6.75 1.4375 6.75 -1 4 C-0.8125 1.6875 -0.8125 1.6875 0 0 Z " fill="#4D6A97" transform="translate(246,385)"/>
<path d="M0 0 C0 3.25811062 -0.5522078 5.10441559 -2 8 C-2.99 8.33 -3.98 8.66 -5 9 C-3.7508258 5.54074837 -2.32472205 2.85306797 0 0 Z " fill="#3A3A8B" transform="translate(278,367)"/>
<path d="M0 0 C0.33 0.99 0.66 1.98 1 3 C0.01 3.33 -0.98 3.66 -2 4 C-2.69937532 5.31647119 -3.36729133 6.65022151 -4 8 C-4.99 8.495 -4.99 8.495 -6 9 C-4.47291037 5.56404834 -2.40072955 2.88087546 0 0 Z " fill="#4D489B" transform="translate(285,358)"/>
<path d="M0 0 C0.66 0.33 1.32 0.66 2 1 C-1.625 6.75 -1.625 6.75 -5 9 C-3.7508258 5.54074837 -2.32472205 2.85306797 0 0 Z " fill="#E74052" transform="translate(279,239)"/>
<path d="M0 0 C0.33 1.32 0.66 2.64 1 4 C-0.98 4.99 -0.98 4.99 -3 6 C-3 4.68 -3 3.36 -3 2 C-2.01 2 -1.02 2 0 2 C0 1.34 0 0.68 0 0 Z " fill="#F3991B" transform="translate(384,175)"/>
<path d="" fill="#647193" transform="translate(0,0)"/>
<path d="" fill="#647CA5" transform="translate(0,0)"/>
<path d="" fill="#939CB4" transform="translate(0,0)"/>
<path d="" fill="#98A8C2" transform="translate(0,0)"/>
<path d="" fill="#7D8FB0" transform="translate(0,0)"/>
<path d="" fill="#E087C2" transform="translate(0,0)"/>
</svg>
